<svg xmlns="http://www.w3.org/2000/svg" viewBox="0 0 346.78 482.24">
  <defs>
    <style>
      .cls-1 {
        fill: #ff1600;
      }

      .cls-2 {
        fill: #ff45ef;
      }

      .cls-3 {
        fill: #25d244;
      }

      .cls-4 {
        fill: #25d2fb;
      }

      .cls-5 {
        fill: #ecec11;
      }

      .cls-6 {
        fill: #ec0011;
      }

      .cls-7 {
        fill: #bcff0b;
      }

      .cls-8 {
        fill: #45fff2;
      }

      .cls-9 {
        fill: #ff17f1;
      }

      .cls-10 {
        fill: #5145ff;
      }

      .cls-11 {
        fill: #00b9b1;
      }

      .cls-12 {
        fill: #00a270;
      }

      .cls-13 {
        fill: #4514e2;
      }

      .cls-14 {
        fill: #451400;
      }

      .cls-15 {
        fill: #00d01a;
      }

      .cls-16 {
        fill: #de435c;
      }

      .cls-17 {
        fill: #de005c;
      }

      .cls-18 {
        fill: #ffb200;
      }

      .cls-19 {
        fill: #54ff00;
      }

      .cls-20 {
        fill: #735d00;
      }

      .cls-21 {
        fill: #274500;
      }

      .cls-22 {
        fill: #4700a2;
      }

      .cls-23 {
        fill: #00ffdf;
      }

      .cls-24 {
        fill: #00ff79;
      }

      .cls-25 {
        fill: #9b640c;
      }

      .cls-26 {
        fill: #e7fbbb;
      }

      .cls-27 {
        fill: #7effa9;
      }

      .cls-28 {
        fill: #84a28b;
      }

      .cls-29 {
        fill: #e77d76;
      }

      .cls-30 {
        fill: #e7bc76;
      }

      .cls-31 {
        fill: #8b002c;
      }

      .cls-32 {
        fill: #952eff;
      }

      .cls-33 {
        fill: #00d0ff;
      }

      .cls-34 {
        fill: #00d003;
      }

      .cls-35 {
        fill: #e2f75c;
      }

      .cls-36 {
        fill: #e23d5c;
      }

      .cls-37 {
        fill: #ffa193;
      }

      .cls-38 {
        fill: #8b0030;
      }

      .cls-39 {
        fill: #53005c;
      }

      .cls-40 {
        fill: #008b67;
      }

      .cls-41 {
        fill: #004973;
      }

      .cls-42 {
        fill: #45fffc;
      }

      .cls-43 {
        fill: #2100e7;
      }

      .cls-44 {
        fill: #73aeff;
      }

      .cls-45 {
        fill: #2eff59;
      }

      .cls-46 {
        fill: #ff2edc;
      }

      .cls-47 {
        fill: #f9ff00;
      }
    </style>
  </defs>
  <title>colorbook_svg</title>
  <g id="fills">
    <g id="lowerskull">
      <path class="cls-1" d="M759,1188l-12.34,12.88L734,1213.58l6.55-7.83a1,1,0,0,0-.83-1.61l-5.33.44a1,1,0,0,1-1-.8l-1.23-6.34a1,1,0,0,0-.48-.66l-5.48-3.15a1,1,0,0,1-.48-.72l-1.16-8.39a1,1,0,0,0-1.88-.25l-7,16.53a.84.84,0,0,0-.05.17l-2.71,12.41a.9.9,0,0,0,0,.4L714,1220h0l6.94,10.9a2,2,0,0,1,.1.21l5.74,17.24a1,1,0,0,1-.31,1.08l-4.64,3.76a1,1,0,0,0-.35.94l.44,2.43a1,1,0,0,0,.47.67l2.37,1.41a1,1,0,0,0,.48.13l13,.22a1,1,0,0,1,.93.71l.72,2.51a1,1,0,0,0,.81.7l8,1.06a1,1,0,0,1,.42.16l8.16,5.56.12.07,2.39,1.17a.75.75,0,0,0,.3.09l12,1.68a1,1,0,0,0,.51-.07l6-2.44a1,1,0,0,1,1.21,1.42h0a1,1,0,0,0,.79,1.48l16.84,1,.2,0,14.69,3.91a1,1,0,0,1,.66,1.32L807.78,1292a1.2,1.2,0,0,0-.07.46l.2,2.35a1,1,0,0,0,1.21.87l9-2.26.18,0L825,1293h9.62a1,1,0,0,0,.7-.29l1.52-1.52a1.07,1.07,0,0,0,.26-.45l1.25-5a.88.88,0,0,1,0-.15l9.69-22.71.06-.18,2.63-12.5a1,1,0,0,0,0-.39l-1.73-8.76a1.11,1.11,0,0,1,0-.19v-11.74a1.06,1.06,0,0,1,0-.31l3.53-10.8a.86.86,0,0,0,0-.28l.37-15.48a.93.93,0,0,0-.14-.54l-4.68-7.68a1.63,1.63,0,0,0-.17-.2l-4.39-4.1a.87.87,0,0,0-.23-.16l-12.24-6-.09,0-6.17-4a1,1,0,0,0-1.39.35L819,1188h0l-2.63,1.37a1,1,0,0,1-1.22-.26l-6.42-7.95-3-3.38a1,1,0,0,0-1.43,0l-3.21,3.3a.72.72,0,0,1-.22.17l-4.2,2.36a1.06,1.06,0,0,0-.36.34l-1.84,3a.76.76,0,0,1-.08.11L792,1190h0l-1.11,1.67a1,1,0,0,1-1.68-.06l-2.56-4.54a1.12,1.12,0,0,1-.12-.35l-.48-3.35a.92.92,0,0,0-.34-.61l-4.83-4a1,1,0,0,0-1.47.25l-8.19,13.65a1,1,0,0,1-.65.46l-4.34.86a.9.9,0,0,1-.46,0l-2.87-.82a1,1,0,0,1-.53-.37l-2.81-4a1,1,0,0,0-1.36-.25l-7.71,5.28a.9.9,0,0,0-.31.36l-3.45,6.57a.81.81,0,0,1-.17.24L734,1213.58" transform="translate(-624.17 -975.31)"/>
      <polyline class="cls-1" points="97.83 264.69 95.83 254.69 99.83 271.69 101.83 277.69 107.83 271.69 101.83 255.69 95.83 254.69 95.83 275.69 95.83 284.69 101.07 283.46 111.83 287.69 116.56 287.6 119.83 292.69 124.83 288.69 156.83 299.69 163.83 295.69 197.83 318.69 200.83 318.69 203.05 311.16 228.83 250.69 227.66 245.01 227.36 237.28 201.83 218.69"/>
      <polyline class="cls-1" points="107.83 221.69 102.83 214.69 101.83 205.69 95.83 206.77 93.83 212.69 91.4 225.48 112.83 226.69 105.83 232.69 108.83 235.69 113.97 237.58 120.64 233.16 119.83 226.69 109.14 228.47"/>
      <polyline class="cls-1" points="107.83 221.69 112.83 226.69 115.51 228.83 110.19 229.26 111.83 232.69 102.83 230.69 101.83 226.5 107.83 221.69"/>
    </g>
    <g id="skull2skin2">
      <polyline class="cls-2" points="89.54 433.68 78.41 435.27 66.83 439.69 63.83 444.69 63.83 449.69 65.83 453.69 68.83 455.69 77.83 457.69 82.83 463.69 88.83 465.69 98.83 464.69 100.83 463.69 110.83 465.69 112.83 464.69 113.83 466.69 115.83 470.69 120.83 470.69 130.83 470.69 135.83 469.69 148.83 470.69 165.83 471.69 171.83 470.69 178.83 463.69 179.83 456.69 176.83 450.69 168.83 446.69 157.83 443.69 144.83 437.69 126.3 433.87 121 434.5 116.83 435.69 110.83 434.69 106.83 433.69 105.83 433.69 104.83 433.69 102.83 434.69 101.82 434.98 100.83 435.69 96.83 434.69 91.83 434.69 89.54 433.68"/>
    </g>
    <g id="skull2skin1">
      <polyline class="cls-3" points="96.88 389.16 98.08 390.85 98.83 393.69 101.83 401.69 110.83 406.69 109.83 410.69 106.04 414.22 85.74 419.11 57.83 421.69 50.55 419.71 45.96 417.58 40.89 420.64 38.83 421.69 36.01 422.67 32.16 424.34 25.25 425.7 19.83 430.69 15.83 426.69 14.83 418.69 8.83 416.69 2.83 410.69 1.2 400.4 5.83 395.69 9.83 391.69 16.7 388.16 21.83 384.69 26.8 387.19 33.83 392.69 37.83 398.69 39.72 400.64 42.9 402.39 46.76 403.01 55.83 403.69 63.83 403.69 66.79 406.28 69.88 406.16 72.82 404.58 78.93 399.06 85.83 394.69 88.88 391.2 94.83 388.69 96.88 389.16"/>
    </g>
    <g id="skull2ribs">
      <polygon class="cls-4" points="90.14 297.94 67.83 286.69 61.69 275.68 52.76 264.9 30.86 265.6 13.38 268.69 15.83 277.69 15.83 284.69 11.87 290.18 5.83 297.69 3.83 304.69 3.94 315.69 7.95 322.19 21.83 321.69 22.83 325.69 12.83 330.69 10.28 334.81 8.25 338.15 10.28 345.89 17.83 355.69 18.83 360.69 15.83 364.71 18.75 372.48 22.83 378.69 21.83 384.69 33.93 392.36 38.83 397.69 38.64 399.81 41.76 401.91 44.83 402.69 50.83 403.69 56.83 404.69 68.83 406.69 70.83 405.69 75.83 402.69 81.83 395.69 86.83 392.69 93.83 388.69 95.83 387.69 100.83 394.69 104.83 400.69 112.83 403.69 125.83 406.69 131.83 401.69 147.38 389.63 151.83 387.69 154.83 382.69 161.83 377.78 162.83 375.69 161.83 372.69 156.83 373.69 141.83 375.69 136.83 367.69 123.83 350.69 122.83 341.69 122.83 330.69 118.83 324.69 109.83 308.69 109.83 303.69 103.83 300.69 94.83 299.69 90.14 297.94"/>
    </g>
    <g id="dogpaw">
      <polygon class="cls-5" points="211.83 445.69 198.83 449.69 195.63 457.08 198.41 463.18 203.83 464.69 213.83 464.69 233.83 460.69 243.83 455.69 240.83 449.69 221.83 445.69 211.83 445.69"/>
    </g>
    <g id="dogleg">
      <polyline class="cls-6" points="181.83 367.69 166.83 371.69 159.16 381.69 151.83 389.69 147.83 390.69 142.42 393.37 138.9 397.11 125.83 406.69 107.83 413.69 97.83 416.69 66.83 421.69 54.83 421.69 45.96 417.58 35.83 423.69 27.83 424.69 22.1 427.86 19.83 430.69 15.83 435.69 17.83 441.69 21.83 446.69 26.83 449.69 39.83 446.69 54.83 442.69 64.83 439.69 70.69 437.71 82.76 433.87 88.83 433.69 97.16 434.44 98.83 435.69 101.53 435.03 105.83 433.69 108.83 433.69 110.83 434.69 112.83 434.69 116.83 435.69 123.83 433.69 133.83 433.69 148.83 432.69 154.83 429.69 156.83 429.69 156.83 431.69 161.83 434.69 171.83 437.69 176.83 436.69 178.83 431.69 181.83 425.92 184.44 422.96 181.83 418.69 185.33 410 184.17 399.06 181.83 380.69 182.83 377.69 184.23 375.23 186.63 374.13 186.97 373.38 182.83 367.69 176.96 367.89 171.75 369.67 170.83 371.69 181.83 367.69"/>
    </g>
    <g id="dogbody">
      <polygon class="cls-7" points="294.83 216.69 296.83 227.69 300.83 238.69 303.83 246.69 306.83 259.69 305.83 264.69 308.83 268.69 318.83 280.69 320.83 284.69 319.72 288.92 320.83 294.69 319.04 302.88 314.16 312.67 308.83 319.69 299.11 329.69 300.83 335.69 302.83 344.69 300.83 347.69 302.83 348.69 293.58 357.89 291.83 368.69 286.83 364.69 282.83 362.69 279.38 361.08 272.11 361.08 266.04 362.03 256.61 362.87 250.09 360.91 244.21 360.49 239.29 362.87 229.5 367.89 224.83 371.69 218.34 369.35 216.12 368.07 203.49 366.79 190.33 372.94 187.4 374.13 180.83 366.69 166.83 371.69 167.83 368.69 169.64 363.91 170.83 351.69 179.83 342.69 182.83 334.69 189.83 335.69 192.83 330.69 198.83 328.69 204.83 327.69 209.83 325.69 215.65 326.19 219.71 325.98 223.83 324.69 229.83 324.69 236.83 324.69 241.83 325.69 243.83 331.69 248.83 331.69 251.83 326.69 252.83 329.69 253.95 331.53 257.83 331.69 260.83 330.69 262.82 328.55 263.83 324.69 266.83 323.69 269.83 325.69 271.52 321.4 273.83 318.69 274.83 316.69 273.83 311.69 272.83 305.69 271.36 305 265.83 301.69 265.83 299.69 268.83 298.69 270.83 298.69 274.83 300.69 276.83 299.69 274.83 293.69 275.83 280.69 275.83 268.69 279.31 263.93 282.81 262.39 289.83 258.69 292.83 250.69 294.83 247.69 293.83 241.69 291.37 236.14 290.24 230.25 291.83 222.69 294.83 216.69"/>
    </g>
    <g id="doghead">
      <polyline class="cls-8" points="258.83 364.69 246.53 359.37 241.7 361.69 231.67 366.61 225.8 369.62 220.83 370.69 216.12 368.07 207.83 366.29 199.67 367.89 194.83 370.69 188.83 373.69 183.52 375.35 182.83 377.69 181.83 381.69 181.83 385.69 183.54 397.69 185.83 402.69 185.83 407.69 181.83 418.69 184.83 421.69 183.83 424.69 180.89 426.5 178.83 433.69 180.83 440.69 194.83 446.69 206.83 445.69 219.83 439.69 228.83 442.69 236.83 446.69 266.83 450.69 277.83 451.69 287.83 451.69 302.83 451.69 310.83 450.69 318.83 448.69 323.83 444.69 324.83 441.69 323.33 437.29 317.83 433.69 315.83 422.69 321.83 421.69 329.83 416.69 332.83 410.69 334.83 407.69 335.83 412.69 338.83 414.69 341.83 410.69 344.83 405.69 344.83 398.69 342.83 394.69 331.83 398.69 327.83 401.69 322.83 403.69 321.83 404.69 320.83 398.69 321.83 389.69 321.83 385.69 319.83 380.69 315.67 376.82 304 375.69 298.83 375.69 296.98 372.63 291.83 368.69 286.83 364.69 281.83 361.69 277.83 360.69 269.83 361.69 258.83 364.69"/>
    </g>
    <g id="dogeye2">
      <polygon class="cls-9" points="271.83 387.69 268.83 391.69 268.83 394.69 270.33 397.49 273.83 399.69 277.83 400.69 281.83 399.69 282.83 396.69 278.83 394.69 273.83 393.69 273.83 390.69 272.83 387.69 271.83 387.69"/>
    </g>
    <g id="dogeyepupil">
      <polygon class="cls-10" points="224.83 388.69 221.83 391.69 221.83 392.69 222.85 393.37 224.83 392.88 227.41 391.15 228.09 390.18 227.83 388.69 224.83 388.69"/>
    </g>
    <g id="dogeye1">
      <polygon class="cls-11" points="219.83 391.69 217.83 394.69 218.83 396.69 219.83 397.69 224.83 397.69 228.57 395.64 231.83 393.69 232.83 390.69 232.83 388.69 229.83 387.69 227.41 391.15 225.83 392.69 223.83 393.69 220.83 392.69 219.83 391.69"/>
    </g>
    <g id="skull1skin">
      <path class="cls-12" d="M905.78,1105.1l-8.43-1-15.81,10.19-3.16,9.89v7.45l-9.49,15.29-2.31,7.81,2.31,4.43,6.33,12.23-1.06,3.06,1.74,4.24.37,6v6.12l-4,7.16-2.34,3-5.27,4.08-6.33,2-4.26-.74L852,1214v11.46l-4.22,3.06,3.16,4.08-1.05,5.1-4.31,2.35,1.15,6.82v6.12l.89,4.22-3,8-4.7,13.44-4.79,5.93-1,3.06v3.06l-.75,2.76-.31,5.39-1,2,3.16,1,4,.51,5.43-1,6.35-.54h9.49l4.22-3.06,1.05,3.06,2.19,7.14h5.19l4.21-7.14.86,7.14h0l8-1,2.63-5.82,6.47-1.32,5.27-7.13-2.86-5.85-.3-2.31v-3.06l-7.38-4.08,3.17-2,2.1-1,4.12.71,1.15.31,1.06-2-1.06-3.06v-26.51l-1-5.09-2.11-4.08v-4.08l-1.48-5.1.43-18.35-1.06-11.22-1-17.33-6.34-9.4-3.61-6.91,1.52-7.14,3.16-13.26,5.27-14.27,5.27-11.22,7.38-6.11L908,1107l-1-.17a2.32,2.32,0,0,0-.6-3L904,1101l1.78,4.1" transform="translate(-624.17 -975.31)"/>
      <path class="cls-12" d="M908,1104" transform="translate(-624.17 -975.31)"/>
    </g>
    <g id="skull1ribs5">
      <polyline class="cls-13" points="287.83 206.69 279.31 211.97 271.83 216.69 269.83 221.69 274.83 221.69 284.83 215.69 289.83 210.69 287.83 206.69"/>
    </g>
    <g id="skull1ribs4">
      <polygon class="cls-14" points="290.83 195.69 284.36 200.07 275.83 204.69 268.83 207.69 270.83 212.69 271.83 214.69 282.83 210.69 288.83 204.69 291.83 201.69 292.83 196.69 290.83 195.69"/>
    </g>
    <g id="skull1ribs3">
      <polyline class="cls-15" points="289.83 184.69 284.57 188.88 278.83 192.69 266.83 195.69 264.83 197.69 268.83 204.69 275.83 204.69 282.83 201.69 288.7 195.47 292.83 192.69 292.83 184.69"/>
    </g>
    <g id="skull1ribs2">
      <polyline class="cls-16" points="277.83 177.69 264.83 181.69 259.39 188.69 266.76 193.79 275.09 193.57 284.57 188.88 289.83 184.69 291.83 181.69 290.83 177.69 280.83 178.69 277.83 177.69"/>
    </g>
    <g id="skull1ribs1">
      <polyline class="cls-17" points="279.25 153.69 268.83 156.69 264.83 163.69 263.83 169.69 264.83 174.69 270.83 177.69 277.83 177.69 283.83 177.69 289.83 173.69 291.83 169.69 291.37 164.78 291.61 160.72 290.86 157.13 289.69 155.8 285.46 150.91 279.83 151.69 279.25 153.69"/>
    </g>
    <g id="skullfingers">
      <polygon class="cls-18" points="309.83 332.69 302.83 337.69 302.83 340.69 302.83 344.69 302.83 348.69 299.15 351.93 293.58 357.89 291.83 365.69 291.83 367.69 293.83 367.69 295.83 362.69 293.83 368.69 296.98 372.63 298.83 375.69 305.02 375.69 309.73 375.69 312.83 374.69 316.83 377.69 322.83 381.69 327.83 373.69 329.83 363.69 329.83 358.69 327.83 350.69 324.83 346.69 317.83 338.69 315.83 330.69 309.83 332.69"/>
    </g>
    <g id="skullarmrest">
      <polyline class="cls-19" points="318.83 307.69 308.83 319.69 309.83 329.69 310.83 331.69 312.83 331.69 315.83 330.69 317.26 319.69 318.83 307.69"/>
    </g>
    <g id="lowerskullarm2">
      <polygon class="cls-20" points="322.83 250.69 314.42 261.29 309.83 271.69 308.26 281.27 305.42 317.92 300.83 326.69 300.83 335.69 308.26 333.57 309.83 329.69 307.83 325.69 308.83 319.69 308.26 310.39 309.8 305.68 310.08 300.15 313.16 287.08 317.26 278.25 321.83 264.69 322.83 250.69"/>
    </g>
    <g id="lowerskullarm">
      <polyline class="cls-21" points="336.83 225.69 343.71 231.08 343.71 238.27 338.67 248 334.7 257.8 331.19 278.25 324.83 299.69 322.83 301.69 320.83 301.69 320.83 294.69 320.83 284.69 324.83 274.69 325.83 264.69 327.83 248.69 326.83 240.69 326.83 231.69 327.83 228.69 336.83 225.69"/>
      <polygon class="cls-21" points="324.83 304.69 328.83 318.69 328.83 337.2 327.83 344.69 325.83 349.69 320.83 343.66 317.83 338.69 315.83 330.69 316.82 322.83 319.04 310.39 320.83 304.69 320.83 301.69 324.83 304.69"/>
    </g>
    <g id="upperskullarm">
      <polyline class="cls-22" points="290.83 147.69 298.84 151.82 311.66 173.29 332.83 215.05 336.83 225.69 325.83 226.69 319.83 229.69 316.83 217.69 316.83 209.69 313.83 204.14 306.83 191.69 298.83 174.69 292.83 170.69 291.37 158.72 285.46 150.91 285.83 147.69 290.83 147.69"/>
    </g>
    <g id="upperskulltoothrow2">
      <polygon class="cls-23" points="239.83 185.69 234.83 196.69 239.83 202.69 239.83 209.69 239.83 218.69 228.85 222.46 228.83 226.69 228.45 230.4 230.78 231.96 233.83 230.69 239.83 229.69 246.83 226.69 248.05 223.72 249.83 220.69 251.83 216.69 252.83 212.69 251.83 210.69 251.48 204.85 249.83 200.69 250.83 197.69 248.05 193.57 246.82 188.88 244.83 185.69 239.83 185.69"/>
    </g>
    <g id="upperskullteethrow">
      <polyline class="cls-24" points="170.83 137.69 166.83 138.69 166.83 145.69 168.83 149.69 176.83 151.69 181.83 151.69 188.83 153.69 194.83 156.69 199.41 160.23 202.83 163.69 210.83 164.69 211.71 168.31 215.83 170.69 220.83 173.69 222.83 177.69 229.83 178.69 234.83 178.69 240.83 176.69 244.83 173.69 248.83 169.69 251.83 164.69 253.83 158.69 249.83 158.69 246.82 160.21 246.18 162.26 242.83 165.69 240.83 167.69 239.09 166.43 235.83 167.69 233.83 167.69 231.83 167.69 228.83 165.69 224.83 164.69 223.83 161.69 222.83 159.69 220.43 157.97 218.83 157.69 216.5 156.5 213.83 155.69 213.83 153.69 211.83 149.69 205.83 148.69 204.83 145.69 196.83 144.69 193.83 142.69 189.83 141.69 187.31 142.36 183.83 141.69 180.79 140.71 180.2 139.45 176.83 138.69 173.83 137.69 170.83 137.69"/>
      <path class="cls-24" d="M817,1118" transform="translate(-624.17 -975.31)"/>
    </g>
    <g id="lowerskulltooth20">
      <polygon class="cls-25" points="208.83 318.69 206.83 320.69 206.32 323.17 206.83 324.69 207.83 325.69 208.83 325.69 209.83 324.69 210.83 322.69 210.83 320.69 209.83 318.69 208.83 318.69"/>
    </g>
    <g id="lowerskulltooth19">
      <polygon class="cls-26" points="203.83 319.69 199.83 321.69 200.83 323.69 199.83 324.69 200.93 327.06 202.83 327.69 204.83 326.69 205.42 325.25 206.83 321.69 205.83 320.69 203.83 319.69"/>
    </g>
    <g id="lowerskulltooth18">
      <polygon class="cls-27" points="197.83 318.69 194.83 322.69 194.83 325.69 195.83 329.69 199.83 327.69 199.83 324.69 199.83 321.69 197.83 318.69"/>
    </g>
    <g id="lowerskulltooth17">
      <polygon class="cls-28" points="190.83 317.69 188.83 317.69 189.52 319.18 191.83 319.69 188.83 319.69 186.83 320.69 185.83 323.69 185.83 327.69 185.83 332.69 188.83 334.69 190.83 333.69 192.83 330.69 193.83 325.69 194.83 322.69 194.83 319.69 194.04 318.13 191.83 317.69 190.83 317.69"/>
    </g>
    <g id="lowerskulltooth16">
      <polyline class="cls-29" points="179.83 316.69 179.83 315.69 178.83 315.69 177.83 317.69 177.43 318.83 177.43 319.69 178.63 321.28 179.45 322.24 181.17 322.56 182.55 322.56 183.83 321.69 183.83 320.69 182.83 318.69 181.83 317.69 181.83 316.69 179.83 316.69"/>
    </g>
    <g id="lowerskulltooth15">
      <polygon class="cls-30" points="174.83 312.69 173.83 313.69 173.83 315.69 173.83 317.69 173.83 318.69 173.83 320.69 174.83 321.69 176.83 321.69 176.83 320.69 177.43 319.69 177.43 316.1 176.83 314.17 174.83 312.69"/>
    </g>
    <g id="lowerskulltooth14">
      <polygon class="cls-31" points="169.83 304.69 165.83 309.69 168.83 312.69 171.83 310.69 173.83 309.69 171.83 305.69 169.83 304.69"/>
    </g>
    <g id="lowerskulltooth13">
      <polyline class="cls-32" points="176.2 333.57 174.83 337.69 173.83 340.69 178.68 339.93 180.64 338.67 180.83 334.69 176.2 333.57"/>
    </g>
    <g id="lowerskulltooth12">
      <polyline class="cls-33" points="169.87 344.47 172.83 347.69 174.77 348.05 176.83 345.69 175.83 342.69 173.83 340.69 171.54 340.98 169.87 344.47"/>
    </g>
    <g id="lowerskulltooth11">
      <polygon class="cls-34" points="168.83 349.69 166.83 350.69 165.83 352.69 166.55 354.02 166.83 356.69 169.83 355.69 170.83 353.69 170.83 351.69 168.83 349.69"/>
    </g>
    <g id="lowerskulltooth10">
      <polygon class="cls-35" points="162.83 354.69 162.83 356.69 161.83 357.69 161.83 360.69 162.83 359.69 164.83 359.69 165.83 358.69 165.83 357.69 165.83 356.69 165.83 355.69 165.83 354.69 162.83 354.69"/>
    </g>
    <g id="lowerskulltooth9">
      <polygon class="cls-36" points="157.83 355.69 155.83 357.69 155.83 358.69 155.83 359.69 155.83 360.69 157.38 361.08 158.83 361.69 160.31 360.54 160.83 359.69 161.83 358.69 161.83 356.69 161.83 355.69 160.83 354.69 157.83 355.69"/>
    </g>
    <g id="lowerskulltooth7and8">
      <polyline class="cls-37" points="148.83 349.69 146.83 350.69 146.3 352.57 146.01 354.78 147.83 356.69 146.83 357.69 148.33 357.69 148.83 358.69 149.83 359.38 151.43 359.88 153.83 359.69 154.83 358.69 155.83 357.69 156.83 355.69 156.83 354.69 156.09 353.32 152.83 352.69 151.83 351.05 150.83 349.69 149.83 348.69 148.83 349.69"/>
    </g>
    <g id="lowerskulltooth6">
      <polygon class="cls-38" points="144.83 346.69 144.43 349.23 144.43 351.8 145.12 353.18 146.83 350.69 147.83 349.7 148.83 348.69 149.83 347.69 148.83 346.69 147.83 345.69 145.83 345.69 144.83 346.69"/>
    </g>
    <g id="lowerskulltooth5">
      <polygon class="cls-39" points="146.83 340.69 148.83 341.69 149.76 343.16 149.83 344.69 148.83 345.69 145.83 345.69 146.01 344.57 145.83 342.69 146.83 341.69 146.83 340.69"/>
    </g>
    <g id="lowerskulltooth4">
      <polygon class="cls-40" points="147.83 331.69 149.83 332.69 152.83 333.69 152.83 335.69 152.83 337.69 149.83 337.69 147.83 337.69 146.83 335.69 145.83 334.69 146.42 332.41 147.83 331.69"/>
    </g>
    <g id="lowerskulltooth3">
      <polygon class="cls-41" points="149.83 328.69 149 330.18 149 331.68 148.83 332.69 151.83 332.69 153.83 332.69 154.45 330.69 154.83 329.69 154.83 327.69 150.83 328.69 149.83 328.69"/>
    </g>
    <g id="lowerskulltooth2">
      <polygon class="cls-42" points="151.83 321.69 150.66 322.33 149.76 322.83 149.83 325.69 150.83 326.69 154.83 327.69 157.33 326.9 158.82 325.98 158.83 324.69 156.83 323.69 152.83 320.69 151.83 321.69"/>
    </g>
    <g id="lowerskulltooth1">
      <polyline class="cls-43" points="158.83 312.69 153.66 313.89 152.83 317.69 153.83 321.69 156.83 323.69 161.83 320.69 161.54 315.8 158.83 312.69"/>
    </g>
    <g id="lowerskullmouth">
      <polyline class="cls-44" points="169.87 321.28 161.78 320.91 158.21 327.64 152.83 334.69 154.83 340.69 154.45 344.47 151.83 347.69 151.43 349.87 152.34 352.57 154.83 352.69 158.83 354.69 162.83 352.69 166.83 348.69 170.23 341.73 172.83 334.69 181.83 331.69 185.38 330.91 185.83 326.69 169.87 321.28"/>
    </g>
    <g id="lowerskulljaw">
      <polyline class="cls-45" points="156.09 303.12 156.09 303.12 148.83 302.69 144.36 304.59 140.83 306.69 138.68 308.03 138.83 312.69 138.83 315.69 138.83 315.69 137.83 318.69 134.83 319.69 132.05 322.56 127.48 326.06 125.83 328.69 125.83 328.69 129.56 332.89 136.43 327.95 129.56 336.32 127.29 340.98 125.83 344.69 128.71 349.87 131.52 355.33 136.45 361.83 140.64 367.41 146.72 369.54 151.91 372.48 160.61 371.52 166.67 366.69 170.83 361.69 169.83 359.69 160.81 362.87 152.83 360.69 148.83 357.69 147.83 357.69 144.83 352.69 140.83 347.69 142.84 345.54 149.85 318.3 153.66 313.89 158.53 312.67 159.83 307.69 155.83 299.69 151.83 299.69 140.83 304.69 138.68 308.03"/>
    </g>
    <g id="brain">
      <polyline class="cls-46" points="130.23 150 120.59 162.76 110.23 172.51 101.83 184.3 101.83 192.23 101.83 202.61 106.24 213.77 104.27 219.87 111.76 226.24 113.97 237.58 126.43 226.2 136.04 219.44 139.99 225.13 143.77 226.24 149.29 225.11 159.22 208.1 159.22 208.1 164.74 213.77 170.26 225.11 170.26 225.11 177.35 214.58 182.36 211.69 190.94 211.69 198.58 221.41 202.27 219.44 202.27 219.44 207.79 209.24 219.94 217.17 219.94 217.17 229.32 221.34 234.39 226.2 239.83 214.46 237.6 205.84 235.71 198.17 235.39 194.5 236.46 188.44 230.13 182.61 222.83 177.69 211.83 167.69 198.83 159.69 174.68 152.55 169.16 151.42"/>
      <path class="cls-46" d="M788.33,1128.73" transform="translate(-624.17 -975.31)"/>
      <polyline class="cls-46" points="190.94 211.69 190.98 213.8 194.83 215.05 196.61 209.48 186.96 208.82 185.83 212.69 190.98 213.8 239.83 208.69 239.83 205.85 239.83 202.69 235.71 198.17 239.83 208.69 234.83 214.69 242.83 211.69 234.83 190.69 110.83 176.69 104.83 181.69 101.83 184.3 189.83 153.69 194.83 156.69 196.61 209.48"/>
      <polyline class="cls-46" points="239.83 208.69 239.83 202.69 237.6 205.84 237.71 213.61"/>
      <polyline class="cls-46" points="164.74 213.77 164.83 218.69 167.83 209.69"/>
      <polyline class="cls-46" points="162.33 215.05 164.83 218.69 167.83 209.69 162.36 211.41"/>
    </g>
    <g id="upperskull">
      <path class="cls-47" d="M872,975.31l-38,10.88a3,3,0,0,0-1.12.62l-24.53,21.78a2.84,2.84,0,0,0-.78,1.13l-9.39,25a2.93,2.93,0,0,0-.18.83l-1.26,19.17a2.09,2.09,0,0,1,0,.35l-3.32,17.48a2.87,2.87,0,0,1-1.69,2.1l-1.12.48a2.87,2.87,0,0,0-.63,4.91l5.94,4.61a3,3,0,0,1,.76.89l2.1,3.87a2.85,2.85,0,0,1,.35,1.37v10.59a2.88,2.88,0,0,1-.3,1.29l-1.66,3.31a2.88,2.88,0,0,0,.77,3.53l3.07,2.45.23.21.54.54a2.91,2.91,0,0,0,.79.56l5.67,2.73.21.09,6.83,2.64a2.85,2.85,0,0,0,1.73.11L828,1116h0l9,7.23a2.89,2.89,0,0,1,1.07,2l.23,2.65a2.89,2.89,0,0,0,1.3,2.16l5.93,3.83a2.25,2.25,0,0,0,.46.24l6.75,2.81a2.1,2.1,0,0,1,.42.22l5.86,3.66a2.87,2.87,0,0,0,3.55-.4l4.07-4.07a2.91,2.91,0,0,1,.72-.53l5.25-2.7a3,3,0,0,0,1.13-1l5.92-9.57a2.94,2.94,0,0,1,.76-.81l7.43-5.38a2.7,2.7,0,0,0,.7-.73l6.31-9.41.21-.28,7.89-9.14,7.9-8.48,1.75-1.87a2.83,2.83,0,0,1,.81-.61l6.2-3.1a2.88,2.88,0,0,0,1.56-2.15l1.79-12.31a3.62,3.62,0,0,0,0-.57l-.7-12.64a1.39,1.39,0,0,0,0-.3l-2.14-13.22L918,1030l-6.54-27.76a2.84,2.84,0,0,0-.65-1.25l-15-17a2.88,2.88,0,0,0-1.2-.81L872,975.31" transform="translate(-624.17 -975.31)"/>
      <polygon class="cls-47" points="205.83 144.69 211.83 149.69 214.83 148.69 211.87 143.97 205.83 144.69"/>
      <polyline class="cls-47" points="226.83 159.69 226.34 163.96 228.83 165.69 229.83 162.69"/>
      <polyline class="cls-47" points="229.83 162.69 231.83 165.69 233.83 164.69 241.81 167.01 245.06 163.96 245.83 162.69 248.83 156.69 246.83 152.69 229.83 162.69"/>
      <polygon class="cls-47" points="298.83 67.69 298.83 62.69 296.64 55.56 296.64 50.11 293.74 41.03 287.83 40.69 292.83 64.69 296.64 73.39 298.83 67.69"/>
      <polygon class="cls-47" points="299.83 69.69 294.16 73.39 296.83 82.69 293.83 99.69 284.83 111.69 284.81 115.94 290.83 114.69 297.83 109.69 299.83 103.69 299.83 86.45 299.83 69.69"/>
      <polyline class="cls-47" points="194.83 140.69 196.31 143.42 199.83 143.69 203.83 142.69 206.92 140.69 205.83 137.5 194.83 140.69"/>
      <polygon class="cls-47" points="208.83 142.69 205.83 144.69 209.43 147.69 208.83 142.69"/>
      <polyline class="cls-47" points="236.61 162.69 234.89 165.48 237.83 167.69 239.09 166.43 236.61 162.69"/>
      <polygon class="cls-47" points="172.83 130.69 172.83 135.69 174.98 135.69 172.83 130.69"/>
    </g>
  </g>
  <g id="outlines">
    <g>
      <path d="M722.36,1451.55c4.08-1.35,8,6,2.13,6C720.39,1458.14,715.8,1450.1,722.36,1451.55Z" transform="translate(-624.17 -975.31)"/>
      <path d="M964.25,1403.56c-1.13,6-6.64-.65-3.41-3.8C963.21,1397.38,964.16,1401.88,964.25,1403.56Z" transform="translate(-624.17 -975.31)"/>
      <path d="M818,1272.87c-1.34,1.26-8.27-.8-8.44-4.1C812.48,1270.05,815.94,1270,818,1272.87Z" transform="translate(-624.17 -975.31)"/>
      <path d="M840,1099.55c.53,1.78.83,3.8,2.3,5.47C837.81,1103.89,834.1,1103,840,1099.55Z" transform="translate(-624.17 -975.31)"/>
      <path d="M933.91,1391.41a18.87,18.87,0,0,0,2,2.28A5.41,5.41,0,0,0,933.91,1391.41Z" transform="translate(-624.17 -975.31)"/>
      <path d="M958.69,1213.64c-.27,1.55-.58,3.12-.91,4.7C958.49,1217.58,958.91,1216.1,958.69,1213.64Z" transform="translate(-624.17 -975.31)"/>
      <path d="M926.8,1380.87c-.08,6.2,4.51,11.38,4,17.2.26-5.72,1.63-7.38,3.15-6.66a31.49,31.49,0,0,1-2.1-3.08C929.33,1386,925.49,1373.27,926.8,1380.87Z" transform="translate(-624.17 -975.31)"/>
      <path d="M680.42,1251a7.43,7.43,0,0,0-.7,1.58C681.21,1252.23,683.53,1251.66,680.42,1251Z" transform="translate(-624.17 -975.31)"/>
      <path d="M648.84,1369.68a14.4,14.4,0,0,0-5.14-2C644,1369,646.81,1369.39,648.84,1369.68Z" transform="translate(-624.17 -975.31)"/>
      <path d="M939.61,1256.59a41.05,41.05,0,0,0-3.73,12.48C937.07,1264.77,938.36,1260.57,939.61,1256.59Z" transform="translate(-624.17 -975.31)"/>
      <path d="M679.26,1252.69l.3.41c0-.17.11-.34.16-.52Z" transform="translate(-624.17 -975.31)"/>
      <path d="M947.06,1379.1c-1.78-16,8-29.06,9.14-44.9-4.9-16.27,1.33-36.54-4.05-51.28-4.74-16.77,9.25-40.07,10.7-59.61,3.82-8,14.91-15.27,2.1-22-19.59-22.5-26.61-69.44-53.3-81.71-5,2-18.95,8.87-10.44-1.25,22.89-13.9-13-18.29,12.07-26.29,4.41-2.57,11.93-6.46,13.06-11.71,1.1-41.68-6.11-105.42-60.5-104.26-36.24,7.1-68.39,30.82-67.38,69.93-6.57,16.61,5.29,15.06-11.31,31.51-.17,8.57,13.3,7.91,13.06,13.3,1.81,9.85-9,12.56-10.78,20.77-5.46,8.15,1,8-3.43,13.42-13.45-1.28-36-10.07-41.37,13-18.43,11.73-4.58,6.35-15.8,19.48-12.24,6.21,5.12,22.58-3.06,21.67-28.65,9.71-8.14,60.48-6.16,81.66,5.22,6.11,25.12.31,13.86,11.37-7.43,7.51-42.25-7.68-44.69-16.55-3.57-23.93-26.89-16-41.54-14.11-15.89.52-12.19,3.43-8.84,14-1.73,6.54-2.47,9.83-9.7,13.41-4.5,10.89-5.89,35.34,12.93,30.2,1.93-.22,2.39,2,0,1.7-18.46,4.21-8.29,23-2.59,33-2.5,10.44,9.05,17.93,4,28.14-13.28,1.5-26.41,18.84-13.75,30.58,14.85,4.05,3.13,1.54,10.74,12.87-3.75,2.31-10.69,10.8-5.08,14.87,10.44-11.35-8.05,14.89,28.15,6.34,34.38-18.09,12.74,2.78,36,8.8,10.31,9.06,22.63,9.5,36.67,5.61-7.64,3.82-5.47,13.29,3.1,10.72a125.14,125.14,0,0,1,59.93-.85c7.19-3.78,9.82-23.3-.16-27.23,37.2-5.12,7.54,22.54,33.53,18.93,13.44-1,28.54-.43,37.13-11.56,15.25-1.89,108.4,4.56,73.33-24.14-2.58-8.4,9.56-7.83,11.68-14.83,4.91-11,3.65,4.15,8.8,4.05C975.45,1372.28,973.27,1358.45,947.06,1379.1Zm5.09-41.17c-3.6,10.87-3.46,12.07-6.54,17.32-5.37-3.88,6-19.32,3.29-26.5,3.83,2.86.07,6.7,1.43,10.51C951.72,1336.15,954.24,1332.87,952.15,1337.93Zm-15.6-4.86c.47-1,1.05-1.92,2.51-1,2.22,2.51,9-4.51,8.63-.51-1.2,10.91-1.71.19-7.56,1.82,8.91,3.09,2.35,16.2,2.39,18.74-2.78-2.46.1-6.76-3.07-9.24-1.54-1.94-.39-2.27,1.19-1.32C942.22,1337.71,933.76,1337.26,936.55,1333.07Zm-6-42.73c2.86-24.68,2.52-47.71,16-60.75.78,4-2.89,14.34-6.89,27,.23-.45.43-.9.68-1.34,7.66,12.78,2.42,28.76-6.82,39.54,1.64-8.75,1.18-17.39,2.41-25.72-3.3,11.91-5.87,24.56-5,35.24,4.26-.62-.38,8.87-4.6,4.33C921.44,1302.79,932.77,1300.34,930.51,1290.34Zm-8.83-102.72c-14.83,9.08-4.4,26.83-4.12,36.2-6,0,.7,13.91-17.59,15.46-5.12-17.57-9.4-35.09,9.57-44.65,13.36-4.07,5-56.42,14.45-38.11,2.93,12,14.21,20.71,16,32.63.55,5.37-1.81,13.55,4.6,16,7.16,2,4.27,9.34,3.3,14.73-4.32,5.89-18.15,34.73-16.8,14.48C932.84,1218.21,918.7,1204.42,921.68,1187.62Zm-13.07-21.48c3.19-1.13,8-9.93,7.72-2.19-.68,10.3-18.89,15.55-25.67,12.13C889.67,1169.85,904.63,1171.81,908.61,1166.14ZM886.83,1163c3.93-2.21,12.2-8.57,17.83-4.9,3,2.82,7.2-6.8,10.37-3.11C914.87,1164.35,888.73,1174.11,886.83,1163Zm20.45,14.43c2.39-1.18,8.18-9.2,8.26-3.29-.14,6.69-18.41,15.24-20.38,14.2C891.78,1181.4,904.43,1182.56,907.28,1177.38Zm4.9,5.81c-.21,7.65-11.7,9.27-17,13.09C896.38,1189.23,907.72,1188.38,912.18,1183.19Zm33.94,72.73c-.9-1.58-2.78-4.81-2.08-6.49C951.65,1235.84,947.48,1247.82,946.12,1255.92ZM927,1315.61c-1.17-5.78,16.78-11.53,13.57-3.16-.13,3-.14,3-3.06,2.42-4.33-1.84-5.37,8.47-9.43,3.46-.33-.45-1.1-1.09.34-1.29C929.65,1316.1,927.93,1313.19,927,1315.61Zm7-10.24c-.63-7.66,3.65-11.78,9.19-22C940.54,1288.21,941.08,1313.28,934,1305.37Zm-5.54,23.55c-.48-2.78-2.72-4.28-.48-7.17,3.88-4,14.36,4.07,9.79-1.82-3.38-3.61,4.22-4.39,3.77.85,1.6-7.24,1.12-2.39,8.14,3.71-1.09,5.77-10,1.63-12.83,5.82-1.18,1,3.85-4.12,1.35-7.06-2.72,2.09-1.85,8.23-7.21,6.62-2,.33-1.35,6.89-5.58,3.71-6.46-3.87-7,13.15-8.56,7.28C917.38,1335.83,921,1324.18,928.49,1328.92Zm-.54,7.83c4.89-.15,6-3.75,7.7,4.12,8.28,13.68-15.07,11.92-16.72,2.83C921.69,1339.64,920.43,1334.54,928,1336.75Zm21.26-15.9c-13.45-8.69-6-27.17-2.91-40.95C950.42,1290.93,955.94,1313.32,949.21,1320.85Zm18.67-111c-14.82,18.56-10.8,44.73-21.76,66.05.88-19.76,7.91-39.47,11.66-57.56-2.39,2.54-8.14-3.11-4.4-7.89C953.2,1198.26,964.72,1201.17,967.88,1209.85Zm-53-87c3.93,1.08.82,7.92,6.11,8.91,10.33,10.37,27.95,49.56,37.89,68.35-2.94,1.12-6-1-8.47,1.65-7.37,5.23-9.41-13-3.55-11.19-2.16-9.22-15.14-18.7-14.11-28-3,.71-5.53-9.29-6.81-12.92,3.69-.56,4.74,5.87,7.36,7.89,2.21.25-3.85-9-6.51-10.29-3.19-.37-5.55-11.35-7.06-7.51,0,2.13,3.33,5.24.18,6.29-6.62,1.72.24-12.72-6.48-16.33C907.71,1126.74,908.66,1123.17,914.87,1122.82Zm-.86,23c-5.18,6.9-8,8.36-14.61,2.82.21,2.87-.68,2.4-3.38,2.1C869.76,1144.87,924,1106,914,1145.86ZM904.08,1108c7.18-5.19-2.69,7-6.81,7.83-6.09,11.36-9.59,27.46-14.92,37.21,1.08,1.67-2.57,2.9.37,4.31-2,1-4.82-7-5.46-3.3,2.91,9.18,13.85,19.29,14.33,30.92,2.72,13.5-.71,31.88,2.87,48.6,6.78,11.9,3.07,27.61,4.42,41.26-7.73-3.43-9.92.52-16.53.29,3.19,3.24,13,2.34,13.64,8.33-1.41,3.37,1,5.56,1.91,8.24-3.36,4.09-2.25,8.31-7.4,5.32,7.81-3.28-5.43-2.69-8.71-3-5.38-.58-9.82,6.52-15.13,4.62-3.7-6.13,28.93-5.43,27.36-11.4-15.64-5.88-25.84,10.14-38.72,12.37-18.13-1.31-18.76,8.86-17.67-9.21-2.2-7-1.3-3.5,3.71-4.71-1.76,1.55-1,1.89,1.07,2.26,5.23-8.9,6.73,1.27,6.22-8.35-11.5-9.07,9.88-22.14.19-39,6.42,8.73,2.71,18.15,2.46,27.69,8.44-10.37-2.12-24.59.64-35.19-1.72-13.15,1.34,3.3,4.07,8.09.38-4.75-2.22-9.93-2.82-14.88,2-14.7-3.28-18.92,11.52-16.66,3.16-2.6.73-5.68,6-4.51,2.19-1.79-3.25-.41-.24-2.65a4.73,4.73,0,0,1,.81-.73c6.51-3.85-5-10.72,1.11-10.56,3.83-.17-2.71-2.07-2.69-3,1.16-5.44,7.59-.1,5.91,3.81-.49,3.61-4.72-1.25-1.73,3.45,3.51-1.81,4.32-2.35.69,1.32,4.32.91,5.65-6.93,4.18-9.11-1.23-1.28-1,1.21-2,.66-.22-1.82,1.11-.53-.48-2.61,3.18-10.14-.34,1.84,5-2.12,3-3.89-12.93-8-4.07-9.39,2.53.85.5-1.1-.14-1.94-.44-2.25-8-6.07-2.72-4.3.73,1.26,2.05.28.83-.68-1.73-4.43-7.05-2.47-2.52-6-2.56-2.66-9-5.22-1.88-4.86-3.07,2.72,2.47.47,3.14.24-6.27-13.2,11.54-20.12,7.29-33.46,3-7.79,12.47-2.74,14.65-14.45C899.05,1101.86,904.29,1113.79,904.08,1108ZM877,1299.57c3.12-2.46,7-1.49,10.83-2.86C885.77,1300,880.46,1298.78,877,1299.57Zm.6,5c-1.47-4.5,3.36-3.49,6.33-4.32C892.82,1303.07,879.7,1309.1,877.63,1304.61Zm-6.87.91c-4.09,1.15-5.68-6.79-.38-4.62C875.35,1299.94,876,1306.41,870.76,1305.52Zm-58.12-11.64c10.62-3.93,3.35,11,.35,15.47-4.22-2.57-2.35-18.74-.11-10.17,2.59-5.9.56-.07,2.69-2.18C817.48,1295,815.86,1293.35,812.64,1293.88Zm37,7.37c32.48-3.54,4,7.63-9.45,8.45C793,1313.28,829.19,1301.68,849.65,1301.25Zm-27.14-3.11c.92.41,1.71-.38,1.15,1.6-2.18,9-6.58,0-1.71-3.87C823.48,1295.36,822.24,1297.55,822.51,1298.14Zm7.7-2c.37,5.28-6.14,10.55-5,2.39C824.61,1294,829.51,1297.78,830.21,1296.17Zm.7,2.33c.4-2.36,2.72-7.19,3.26-2.15C835,1299.24,830.89,1302.71,830.91,1298.5Zm23.75-118.39c-1.48-.64-2.75,1-3.94.62-1-1.34,3.07-4,.24-4.18-3.75-3.14,3.21-.53-1.67-7.31.82-3.08,6.77-1.57,2,.21.73,1.49,2.74-.17,4.08.16-3.07,2.42-.32,4.09-3.64,5.61,3.14,3,5.82-3,8-3.36,1.14,3-5.3,4-6.2,5.92,1.5,3,11.84-2.89,6,1.18,8.12,1.45-3.26,1.72-5,4,2.59,1.28,6.65,1.6,9.84,1.33-4,2.74-9.68,4.47-11.34-.66C850.76,1181.47,858,1181.88,854.66,1180.11Zm-3.44-38.8c4.65,2.22,2.81,10.41-1.71,11.46C844.38,1152.44,848.67,1141.22,851.22,1141.31Zm-7.44-5.59c1.32-5.43,1.05,4.41,3-.72C850,1148.42,837.26,1152.11,843.78,1135.72ZM859,1149.47c-4.55,6.7-4.94,3-2.52-2.51C855.61,1140.47,861.14,1146.89,859,1149.47Zm11.25,19.41c-2.22-2.32-4.57.16-6.69-.25-1-1.57,1-2.54,2.36-2C862.51,1159.78,871.62,1162.9,870.2,1168.88Zm1-27.87c.64,2.37-3.9,8.51-3.89,3.54C866.87,1143.36,870.72,1138.39,871.16,1141Zm3.44,43.36c-5.41,2.71-10.82-8.77-4.42-3.85,1.49.78,3.53-8,4.88,1.37C872.29,1179.59,874.41,1183,874.6,1184.37Zm-6.15,17.76c-2.83.35-8.6-5.93-4-7.78,5-4.72,10.84,9.8,3.94,2.91C871.41,1203.91,865.72,1196.39,868.45,1202.13ZM858,1199c3-.19,5.83,3.07,5.72,5.45C860.64,1205.27,859.87,1200.88,858,1199Zm.25,6.83c-1.08,3.71-6-.8-5.55-3.82C853.92,1198.39,857.44,1204.34,858.21,1205.87Zm13.34-30.61c-4.48.26-4.38,3.16-7.19-2.54C862.13,1164.67,879.74,1172,871.55,1175.26Zm2.81-41.54c2.6,2.22.61,4.88-.94,7.22C871.71,1138.18,871.67,1135.43,874.36,1133.72ZM797.11,1109c2.21-2.54,6.61-2.13,8.7-5.33-1.73-.43-9.36,4.44-7.51,1.68,3.33-.52,6.51-2.3,1.53-1.78,1-1.89,5.18-1.67,3.74-5,1.76,2.89,3.51-.85,5.1,2.52,2.32,1.41,1.31-2.75,2.28-4.27,1.37-5.93-5.24-4.55-5.66-8.35-.86-7-22.48-5.69-11.63-14.24,1.85-.88,1.31-4.15,4.23-3.77,2.14,1.43-3.84,4.6-1.15,7.81,1.25,4.36,14.14,11.53,14.58,7.34-5.67.4-8.26-6.92-11.77-10.41-2.29-2.38,2.74-3.62.76-5.56,6.28-16.46-4.73-10.55,1.44-22.52,2.53,1.27,10.33,13.28,10.82,7.63,9.5,2.36-6.76-2.26-7-7-4-2.68,4.41-14,2.75-7.59,5.53-9.11-.1-21.76,6.57-31.18-7.74,8.83-5,21.78-10.36,31-6.65-38.48,59-81.78,92.46-48.32,18.94,12.41,28.71,41.66,25.38,89.42-.58,3.68-9,1.6-9.1,6.19-2.72,4.55-20.88,4.82-18.2,15.32,1.35,3.92-15.43-1.16-22.74,2.48-9,.45,6.23-2.09,7-4.57-1.83-1.22-5.68,1.22-8.36,1,6.64-9.87-11.6,15.56-23.36-2.62-5.84-9,9.51,32.69,7.32,14.15,2.64,1.41,1.82.71.47-1.18,3.29,2.38,2.1,1.22.13-1.48,4.72,2.55,3.84,0,6.92,10.07,3-1.13-3-9.28,3.46-4.6-3.35-4.07-2.23-3.69,1.28-.85-7.15-7.54,2.66-1.3,2.61,5,0-11.35,4.86-5.29.91,4.92-6.4-.37-1.66,2.43.29,7.61,1.75,1.3-.47,4.38-2.46,4.67-3.57-.18.09,2.42-1.38,4-4.69,1.23-3.25-8-5.85-9.55-3.25,3.35,3.88,8.22.76,11.15,5.23-.11,4.13,8.64-.39,8.32-.66-6.15-1.4-15.46-3.64-21.33-1.66,2,.85,7.67,0,10.47-3.7.79-1.87-2.72-2.89-4.64-1.39-12.91-2-5.9-1.59,2-4.73,6.73-2.08-3.71-2-6.62-.51-3.18-1.33-6.35-3.64-8.85.83,4.8,4.36,14.71-4,9.84,1.77-1.65,4.11-7.82-.17-8.28.58.78,1.31,1.47-.07,2.17-.38,3.3.52,5.34-4.23,4.43,3.52-4.54,1.78-10.06,1.17-15.54-2.61,2.69,1.5,7.49-1.38,9.63.64-2.46-2-7.34-4.77-4,6.49,1,.42.63-2.66,1.26-.55-8-1.55-19.71-2.86-5.5-7.62,1.74-8.93,4.84-7-5-3.14-3.55-1.38,10-6.29,3.17-13.81,2.39,3.12-8.85,3.35-15.74-2.21,3.21-3,5.21-5.87,5-1.55,2-1.88,4.5-3.87,6-4.26,4.91-.38,7.59-7.57,2.88-3.39-1.15,3.36-3.09,4.12-4.77C809.54,1102.59,796.05,1113.46,797.11,1109ZM833,1130c1.47-1.42,1.38-5.56,1.62-1.64,4.24-5.27.62,11.49-3.33,11C819.84,1138.57,835.44,1115.54,833,1130Zm-7.43,3c-9.07,3-6.85-18.4-1.22-10.08,1.87-2.9,1.23-1.63,1.58,1C829.55,1116.92,828,1131,825.59,1133Zm16.3,2.55c-.77,4.91-3.33,11.88-7.06,4.46C835.82,1136.2,840,1126.53,841.89,1135.55Zm-31.09-8.17c-2.86-.55,2.3-16,3.73-6.78.83-1.63,1.15-4.72,1.88-1.18,4.41-1,.9,5.3,1,7.28C817.92,1130,812.76,1126.41,810.8,1127.38Zm-7-3.25c-15.51,9.77-6.19-18.54-3-7.43,2.12-4.53.59.63,2.51-1.77C807.9,1116.67,805.19,1122.69,803.83,1124.13Zm-8.93-11.32c1.05,1.89-1.26,6.64-2,8.36C789.61,1118.25,791.19,1114,794.9,1112.81Zm-66.52,50.63c3.19-7.59,8-8.4,13.53-3.6,4.13-1.44-2-.26-2.19-2.95-3.49-2-3.15-11.34,1.31-12.54,5.85.58,10.42-4.91,15.77-1.13,3.57-.87-6-4.58-8-1.47-8-13,30.59-22.75,35-6.62-7.48,11.72,14.33,8.75,1.34,7.35-4.7-9,10.5-4.92,14.26-2,5.72,1.83-7.31,12.34,2.5,10-10.26-6.81,14.83-.87,13.17,6.55,4.92,10.09.45-5.23-2.4-7.6.31-2.54-.84-.26-1.31-.59.69-1.54.41-2.24-1.72-2.17.16-2.57-2-1.45-2.87,0a4.63,4.63,0,0,1,7.47-3.11c1.77,2.21,2.51,8.26,6.66,4.71-10-5.57-1.81-9-17.16-6.27.74-2.21-.86-2.93-2.09-1.17,2.74-7.92-17-4.26-7.47-11.76,6.33-4.59,4.38,8.62,10.08,8-8-6.56,7.31-6.94,11.43-4.65,4.42,2-1.39,6.21.59,8.38,2.7,1.69,2.52-4.89,5.2-4.08,2.49.24,4.17,7.4,1.6,7.62-8.37,3.85,11.07-2.13,11.68,1.43-3.06,4.48-4.28,4.6,0,9.36.77,6.39-10.59,1.7-11-1.62-1.83,2,1.26,6.08,3.71,7.18,3.76,2.26,12-3.09,7.94-7.21-.61-1-3.7-3.3-1.29-3.8,24.26-1.5-7.8,16.9,8,14.76,4.77-7.5,4-2.61,7,1.34-.32,2.83-5.12,5.4-1.77,9.32,2.73,1.86-6.92,7.33-1.06,5.48,3.48-1.36,9.16,11.55,1.27,8.9-1.13-2.56-2.55-.55-4,.18,1.51-6.26-3.52-.11-6.22-1.09-1-1.39,2.27-3.91-.79-4.53-18.45-5.33-11.81-23.84-18,4.23-5.83,6-11.85-21-16.1-12.52,1.81,5.92-9.14,12.45-9,3.72.72-5.47-3.62,3.32-2,5.63,2.14,7.27,14.27-8.88,11.38,5-2.33,1.54-1.24-3.61-3.5-1.6-2,1.08-8.94,5.41-7,1.94-7.61,5.79-2.6-27-9-9-3.67-20.05-5.62,5.2-12,11-8.3,5,.44-6.67-8.72.59-1-3-1-18.51-4.48-14.48,1.83,12.79-7,8.9-15,9.94,12,2.5-.53,11.12-6.49,13.22,3.59-2.08,10.11-6.65,2.09-2.91,7.27-4.45,4.56-4.09-1.44-.83,4.07-3.09,8-5.29.64-2.27,4-2.57,5-3.47-.42-1.69,8.67-4.14-11-3.49-5.79-11.56,3-4.64,7.9-1.56,11.62.41,12.56.34,9.87-9.33-2.22-7.57-6.08-3.65,1.45-8.74,6.37-8.21-2.53-1.66-5.26-.56-7.45.93-5.25,3.22,1.52,10.86,2.75,12-2.08-.17-10.69-.23-8.52-3.76C736.54,1171.21,723.89,1170.2,728.38,1163.44Zm-6.24,93.84c-4.13-2.83,2.28-7.22,4.06-4.44,1.28-.78-1.06-3.43.8-4.27.41-.13.09-.66-.35-.68-3.93.58,4-1.53-.76-1.22-.57-.07-1.21.16-1.67-.47,2.27-.7,3.44-1.54,0-1.31-2.32-1.2,1.79-.7,2.66-1.79-1.45-.89-3,.08-4.55-.76,5.86-1.39,2.55-.86-.55-1.74.28-1.57,3.86.34,3.82-1.45-.15-1.28-3.68.76-4.15-.67-.15-1.56,3.75-.41,3.64-1.67s-3.53.29-3.21-.56c4.6-.68,1.92-1.45-.91-1.54.24-.88,1.39-.3,1.73-1.06-.19-1-3,0-1.6-1.44,1.19-1-.48-.46-.44-.9,3.4-1.32-.49-.43-.38-2.07,3.54-2.21-3-2,2.52-3.14-1.63-.81-4.71-1.35-.91-2.13-.42-1-2.56-.42-1.95-1.93,7.88-.85-4.93-1.72,3.38-2.5-1-.93-3.62-1.29-1.06-2.42.22-.81.73-7.84-2-4.74-.27,3.62-2.27,1.61-4.08,1.69,1.48,1.37,5.44,3.69.8,3.65,3.48,2-.56,7.54-1.79,2.28-3-14.49,1.46-26.08,8.47-38,3.82,6.1-2,14.51,8,15.22,5.49,1.36-2.4,7-2,10.68-.77,1.87,1.26,7.4,1.24,2.65,1.87-8.35,1.78-5.8,7.44-7,13.69-1-11.6,13-5.33,12.77,13.22-7.24,12.18-20.7,25.64-28.23,2.48-1.93,5.67,16.56.14,19.33.7,1.84-.78,3.33-.85,5.29,1-2,4.09-.77,2.65-3.16.2-.31,2.12.62,1-1.06-.23-.88,1.88.06,1.05-1.34,6-9,17.51-15.38,17.63-29.48,1.07,4.35,1.79,13.85,5.17,5.28-.52,8.83,3.18,15.91,4.36,24,2.52,16.41,2.1-1.45,2.38-8.79,8.8-22.8,13.54,9.88,15.31,4-.79-8.78-.12-15.78-3-25.22,6.21,7.84,10.88,19,22.77,13.58-6.64-2.46,2.74-3.88-3.23-11.16-3.36-7,6.61,7.32,10.95,6.25,2,3-2.37,9.43.77,12.46,3.49,1.59-.38-2.29.59-3.54,11.21-19.5,20.36,24.59,12.89,34.35-1.63-1.9.48-4.89-1.44-6-1.71,1.37,1.11,6.37-1.45,7.37-2.61-7.93-1.25-1.85-3,2.09-.94-15.84-.75-9.86-2.32,1.74-3,.16-.55-2.53-.81-3.71-6,1.29-5-7.26-6.38-10.41-4.58,15.67-16.12-8.61-14.13-17.43-2.56-7.73-.42,13,2.15,16.55.69,6,22,15.11,10.29,12.61.88,1,5.77,4.41,1.69,4.54-13.73-13.07-10.32,22-11.47,27.24-1.75.56-2.77-.7-4-2,.77,4.57,6.94,5.26.66,3.81-4.81-1.25,2.73,7.24,6.62,1.73-1.32,5.92-11.48-.41-9.3,4.29,3.28,4.41,8.06.24,11.37-2-1.73,3.9-5.36,5.35-8.47,7.41,10.72.85,10.59-11.4,17.59-17.55-10.57,9.95,3.93-13.84,1.1-21.87,5.7,4.86,5.37-2.44,9.15-4.2,2.67.29-.42-3.9,2.09-2-.3,14.74-11.5,2.72-6,22.8-.44-1.76-3-.63-1.63.85.36,4.82-9.35,9.13-10.43,15.49-1.11,3.37,10-5.22,11.55-6.47-1.8-5.6,8.48-5.57,2.53-2.14-9.35,7.85-10.9,21.41-10.54,31.49-3.75-.44-1.24-3.41-3.38-5.58-.9,2.09.08,4.37-3.28,4.73-4.66-.48,1.28-7.67-.24-10.11-4.54,2-1.69,8-2.81,11.36-4,2.65-3.46-8.38-4.33-4.74.06,9.63-4.21.43-8.62,3.52-8.61,6.52-1.43-4.7-.71-8.3,15.9-16.07-51.45-8.13-27-16-2.5.73-6.52-.68-8.56,2.09-3.81,5.93-9.92-2.12-15.15,1-4.2-.37-6.72-6.2-11.45-7-2.7.26-16.14-4.4-9.73-5.41C734.48,1255.83,727.19,1261.74,722.14,1257.28Zm75.24,66.08c-8.55-11.79,8.62-2.09-.72-5.52C796.28,1320.87,804.67,1320.93,797.38,1323.36Zm-1.93,13.78c-1.82-5,1.19-9.1,4.07-12.46C800.39,1328.36,795.56,1332.69,795.45,1337.14Zm3.56-24c-.49-2.17,1.9.11,2.73.38,2.87,1.27,1.25-3.38-1.2-2.63C806.83,1307.25,804.34,1320.05,799,1313.18Zm-9.68.38c.24-.08.4-.52.77-.2,1.87,2.09,3-4.22,3.13.92,2.76,2.3.5,5-3.53,3.21-6.75-2.36-6.67,4.56-.82,6-7.14-1.55-11.46-.1-2.48,4.64-3.17-.28-2.07-.48-2.84,1.61-3.88-.83-13.3-8.39-4-3.71-3.2-4.79-3.67-3.1,1.46-2-7.71-6.15,4.5-2.67-2.21-7.87-.88-4.43-.07-9.83,3.53-13.22,3.67-1.27.1-5.36,3.57-6.73,6.34-1,31.68,8.86,20.41,11C789.94,1294.24,770,1322.92,789.33,1313.56Zm-28.51-13.14c-6,3.92-4.81,10.68-10.53,3.31.89-5.12,11.36-4.68,13.51-12.3,2.18-2.76-2.79-8.07,1.16-9.5,8.7-2.37,17.87-9.94,16.52,3.6.86,3.55-2.68.4-7.45,8.09-4.52,4.75-1,13.93-8,19-2,3.06,1.8,1.7,2.45,2.52,0,.65.46,1.67-.65,1.78-3.94.48,2,4.27-2.68,6.12-2.76.22-3.38,6.72-1.32,3.27,5.08-8.2,2,12.68,9.41,7.56-.32-2,.68-4.39-1.67-1.56.51-1.57-3.94-2.27,1.49-7.27,3.69-1,2.25,4.94,1.42,6.72-1,4.47,2.91-5,4.81-3.36,1.24.77,1.72,2.31,1,3.22-2.11,6.47-5.08,1.2-8.25,3.35-2,3.32-4.76-3.37-5-.35,1.21,2.29,3.54,3.1,4.38,4.49,1.56-3.59,7.48-2.64,4.35,1.54-2.56,4.48,6.4-4,1-4,2.9-.72,9.32,1.52,3,1.68,4.77,2.82,10-1.89,14.15-4.11-7.42,26.54-38,6.88-41.8-12.86C747.29,1312.73,765.09,1302.33,760.82,1300.42Zm10.85,19.66c-.25-.17-1.49.71-1.48-.66C770.69,1312.6,777.31,1321.09,771.67,1320.08Zm1.52,3.31c-.93,1.27-3,2.31-4.07,4.49C767.18,1324.14,771.18,1317.85,773.19,1323.39Zm-2.05-12.08c-.74-1.11-.44-4.79,1.47-3.18,1.39,1.74,4.43-.41,3.81,2.76C777.22,1314.08,772.52,1311.63,771.14,1311.31Zm3-6.91c3.06,3.08,1.71-2,4.35-.78C779.84,1308.09,770.18,1309.29,774.14,1304.4Zm3.36-7.81c3.6,1.56,1.2,1.74-1.52,2.05.09.75,2.47.63.88,2.19.51.6,6.55.94,3.94-1.55C789.16,1302.49,766.67,1304.78,777.5,1296.59Zm3.22-6.36c1.14,1.21,4.53-.74,4.25,3.51C780.22,1305.26,774.15,1286.64,780.72,1290.23Zm5,42.66c-.46,2.31-1.54,3.44-3.3,3.45C776.17,1336.07,785.49,1326.38,785.72,1332.89Zm1.26-2c4.55-3.21,3.61,4-.42,4.28C786.67,1333.77,787.84,1332.51,787,1330.91Zm4-3.73c.81-3.51,2.22.23,3.38,1.17C793.85,1333.48,789.57,1331.12,791,1327.18Zm5.41-43c-1.21.79-2.53,3.49-3.63,3.39C789.1,1284.88,795.51,1278.8,796.43,1284.22Zm4.28,12.56c-2.61,1.12-4.06-3.75-.66-2.33C794.41,1285.65,804.16,1287,800.71,1296.78Zm3.31-3.44c2.2-3.37,1.66,1.24,3.68,2.94-1.69,4.39-9-1.27-4.15-5.17C804,1291.79,803.37,1292.69,804,1293.34Zm-137.55-44.76c-6.49-7.89-2.81-10,13.68-4.91,6.77,6.78,8.61,21.95-.59,9.43-2.15,10,25.7,14.54,29.93,23.52-11-6.49-24.36-6-35-12.1C668.53,1260.19,649.33,1237.82,666.47,1248.58Zm-33.82,44.77c-5.31-.23-.79-23.21,1.63-24.07,9.27-1.93,4.49-13.91,11.52-14.66,8.68.43,25.75,13.37,10.22,17.36,5,3.46,9.81-3.72,14.21,1,1.95,4,14.33,8.28,7.76,12.14-2.89,1.24-4.89-2.16-6.7-1.68C663.14,1293.49,644.48,1298.45,632.65,1293.35Zm37.49,1.79c10.09,5.15,26.58,7,34.16,11.44C700.09,1309.54,656.26,1301.2,670.14,1295.14Zm2,21.2c-11.36,3.68-21.67,4.16-29.18-5.89C652.69,1304.69,663.44,1311.09,672.1,1316.34Zm26.95,5.24c-5.53,9.21-24.11,3.73-33.52,2.58C676.13,1319.27,688.11,1322,699.05,1321.58ZM642.29,1393c-1.27-3.43,4.09,0,5.13,1,6.33,2.21-6.13-8.69-10.12-2.41-17.32-4.79-7.23-26.15,6.4-23.83a1.91,1.91,0,0,1,.59-1.61c6.7-14.64,11.56,21,45.27,15.31a.53.53,0,0,0-.16.28c.44,2,3.47.56,5.31,1-7.37,2.55,6.52-.72,8.79-3.45-.48-6.19,5.85-4.27,8.55-8,.37-2.43,1.81,1.73,2.14-.57-1.75-7.27,11.43-3.28,5.88-9.35,2.17,1.39,2.73-.47,1.55-1.78-2.61-2.91-3.48,5.88-5.46,2.45-.26-1.77-.78-2-2.46-1.27-3.84,3.32-5-3.38-3.66-6.21-4.34,1-1.46,4.86-2,7.74.82,3.25,6.2-.16,8.59,2.21-1.64,1.67-4.16-1-5.91,1.25-.79.43-1.57-1.92-2.6-.76,0,1.42,2.41,6.26-.93,3.18-7.71,3.27-15,9.61-22.66,9.89-10.9,2.67,8.53-5,10.7-7.38-6.56.82-17.17,4.38-21.22,5.59-2-.07-6.1,3.35-10.26-.77,11.57-3.4,34.63-5.73,36.4-11.26-14.67-1-31.22,13.07-45.8-1.57,14.26,4.45,44.69,2.64,48.33-11.23-17.53,2.19-35,5.16-51-1.7-2.33-.81-11.54-9-7.47-8,15.74,9.58,45.89,10,59.64,1.41-4.15-5.4-12.71-1.54-17.32-3.47-9.7-1.69-23-1-33.47-6.71-8.22-3.75-28.32-17.93-14.8-24.29,5.42,19.36,80.48,26.9,65.4,9.8-17.69,1.42-34.54-4.82-49-14.34-8.93-5.49-5.68-6.79,4.68-9.53,8.8,13,41.29,29.31,50.32,11.52-3.95-4.45-60.7-16.88-33.84-18,12.08,2.87,28,13.56,36.5,14.83-4.57-5-12.74-7.27-17.7-13-16.53-11.87-28.77-31.12-47.48-38.84-5-3.33-5.25,4.54-8.55-4.13.44-5.74,9.29,2.3,11.81-3.28,14.27,8.59,26,27.25,40,39.13,5,8.8,24.93,12.41,23.61,21.46-.61,2.55,4.91.15,4.62,3.71,3.67,2.4-1.16-4.63-2-5.77.23-8-16.53-5.85-12.84-14.33,3.21-8,29.09-17.38,25.2-5.62-10.58-9-33.71,9.13-17.58,6.3,1.92-2.64,8.2-2.74,12.26-2.46,9.49,2.85-21.15-.18-8.78,4.43-2.55,1.24-5.7.47-7.16,1.87,2.75,2.67,11.58-4.44,12.34.71,1.23,3.86,5.85-4.93,6.45,1.44-2.73,7,13.28,9.63,3.91,10.44,2.89,6.93,16.61-2.68,15.36,5.93-1.87-3.44-7.22-2.56-5.18,1.77-2.74-6.07-8.61-.39-11.09-4.8-.31-1.15-2.38-5.45-2.65-2.26,2.85,12.64,7.7-1.61,12.75,11.42-5.34-1.09.63,3.57,3.43,4.2,2,.15,1.56,2.62,3,3.56.39-2-.08-1.73,1,0,.31,3.06-2.46-.82-3.84.74-.86.67-.83-1-1.77-.5-2.44,1.07-4.71-.47-6.13-1.11-4.37,3.53,7.82,10.49,12.84,11.83,5.14.54,10.49,11.83,5.68.66,7.86,12.38-1.25-6.09,6.67,8.45-8.71-.15-21.45-11.57-27.35-4.85,12.53,13,34.72,17.82,51.87,8.88,3,2.69-2.82,8.27-7.29,7.68-17.78,4.39-31,1.3-48-4.48,3.08,12.5,26.77,13.35,38.44,9.38,23.74-7.83-5.79,8.29-12.58,15.76-8.54,1.81-17.08-.63-24.73-3.11-16.61-21.79-2.67,1.83-9,14.05,9.08-1.2-4.27-8.87,9.3-6.84-2.16,1.19-9.3,1,1.92,3.2-1.54,0-4.09,1.35-1.4,2-.81,3.21-45.56,14-58,7-7.68-4.84-13.58,7.68-21.61,6.22-3.21-1.18-7.09,5.67-8.1,4.07,0-1.53,2.68-3.65-.14-4C638.51,1399.79,644.08,1395.38,642.29,1393Zm8.85-33.69c.91-7.76,8.76-2.89,13.93-2.33C661,1360.33,655.26,1364.05,651.14,1359.26Zm40.93,21.61.74-.16C695.17,1381.12,693.74,1380.87,692.07,1380.87Zm-26.71-18.52c6.59-5.63,15-4.46,23.16-5.1C681.61,1362.44,673.82,1363.8,665.36,1362.35ZM646,1336c3.69-1.88,11.25,3.44,16.82,3.79C656.05,1341.79,645.44,1347.75,646,1336Zm22,10.84c4.81-1.94,17.07-7.15,18.57-1.77C681,1348.45,674.29,1345.88,668,1346.86Zm56.17-60.79c3.38.27,4.83.75,0,0Zm74.72,141.47c4.16,5.18-1.25,7,2.2,10.87.56,2.11-8.47,7-10,7.28-6.86-5.37-34.71,4.56-15.3-10.5-5.74,1.84-9.56,7.08-14.72,2.14.54,2.72,3.07,3.32-.58,4.88-4.61-.21-4.67-9.41-11.65-7.77-4.43.53-15.68-3.06-6.24,1,22.06-.89,13.85,14.65-1.29,8.2-5.64-14.77-26.15-1.45-19.11-15.16-6.29.6.55,9.78-2.9,9.94-2.79,0-4.13-2-5.87-3.65,1.84,5.77-11.75,4.39-5.89-.23,6.5-9.81-21.93,2.5-17.85-12.69,7.55-14.82,22.44-12.44,35.76-10.31,6.17-6.9,12.58,4,18.62-.11,5.56-4.9,11.64,4.07,5.61,6.86-3,7.34,26-15.16,28.28,10,2.47-1.25,14.12.84,10.84-.89C762.33,1426,790.14,1420.73,798.84,1427.54Zm-2.52-15.92c-3.07-1.17-20.23-5.8-13.54-7.09,1.73-1.43-.85-2.42-2-2.82-.27-1.43-1.9-2.31-1.41-.16-4.16,9.53-23.57,3.72-33.13,6.63-5.16,5-10.58-.47-16.69.43-7.45,4.58-14.57-3.38-21,.51-5.33-1.31-21,9.34-15.48-2.72,4.49-4.91-7.48,3.47-9.06,6.33-4.33,4.06-10.5,1.52-2.25-.27-1.24-1.56-6.11.56-7.47,2-5.95,5.68-8.16-.44-13.15,6.63-2.14,2.66-12.34,1.19-12.3-4.4-1.76-5.82,5.14-2.36,7.76-4.87,7.18-8.1-1.28-.19-6.54-.15-5,.39-9.58,8.52-7.53-.92,0-4.06,19.17-4.07,13.9-6.39-5.05,2.76-14.39,2.12-5.73-2.84,12.12.56,21.27-15,24.83-2.13,39.79-4.63,41.3-3.39,84.78-18.09,4.7-3.32-5.88,1.17-8.15.87,6.76-3.39,10-11,16.84-14.12,2.2-.46,4.19-2.58,6.28-2.68.31,1.47-4.57,5.76-.54,3,8.45-11.72,18.31-26.58,31.85-24.43,1.74,1.49,1.61-.19,1.29-1.62-1.6-5.09-10.84,4.5-15.89,2.06,7.07-13.28,21.06-22.46,35.61-28.29-10.59.71-17.86,8.57-27.15,12.36,2.63-13.1,12.6-10.64,22.88-14-4.81-.51-18.91,3.94-15.92-1.84-.39-2.82,3.15-3.11,4.55-1.1,9,2.71,33-1.16,47.92-3.48,4.91.67-6.06,5.13-.47,5.35,4.11-1.73,3.67-6.54,6.53-9.11,1.42,4.48,1.34,8.5,7,5.77,1.63,3.23,6.17,6.77,9.63,5.42-5.73-2.08-9.73-5-6.61-12.23-1,3.75,6.82,9.44,5.59,5.31-1.91-1.3,5.56-2.88,7.26-1.26-4.27-15.48,7.17-.42,15.76-.95-15.74-6.62-9.81-16.14,6.72-7.08-5.17-3.45-15.34-7.88-12.29-16.58,1.57,3.37,3.64,5.72,7.69,4.32,8.68-1.14-3.43-.75-5.28-2.45-.3-6.13-11.79-3.87-9.89-9.11,5.83-3.2,8.49,4.38,10.73,2.34-3.49-7.65-3.15-24.37-.12-35.79,38.12-19.92,4.88-24.83,15.29-45.84-1.22,4.81,12.58,27.18,10.87,39.14-4.1,8.46,1.95,5.44,4.08,13.49-2.06,16.69,1.33,43.4-9.53,53.39-2.59,7.08,4.3,12.93,2.25,20.29-.89,5.41-8.08,6.75-8.47,11.92-1.69,1.66-1,7.69-3.67,6.67-10.51-13.66-23.37,1.78-35.49-4.79-11.61-5.13-19.87,6.87-29.25,9.16-10.54-2-19-8.16-29.2.85-32.5,2.45,4.46,42.28-18,47.46-.17,2.58,7.09,2.9,5.93,5.1C801.47,1401.58,802.87,1412,796.32,1411.62Zm61.46,23.79c-3,3.5-1.17-2.81-3.41-3.18-2.44.08-1.26,5.14-3.09,5-4.31.36-2.47-3.37-3.49-5.76-1.92.31-2,4-4,4.3-1.35-.91-.2-4.46-2.54-4.73-2.68.56.23,7.59-3.39,6.12-4-1-.94-6.49-3.74-8.11-1.1,1.29-1.51,3.84-1.28,5.66-1.67,7.17-8.8-5.76-7.28,3.82-5.56-.57-2.2-14.92,1.79-12.92.79.56,4.35,3,3.72.5-.33-.88,1.4-1.66,3-1.23,3.56,1.47,5-3.65,8.5-2.36,3.06-.34,9.25,10.73,8.62,5.7-1.71.32-3.32-2.93-.87-2,1.81-3.24,4.54-5.49,7-.24.41.48.77,1.76,1.69.21,2.19-.91.71,4.14,2.31,4.11C866.23,1430.09,858.6,1433.82,857.78,1435.41Zm29.93-27.15c2,5.79,6.63,11.87-.08,3.62-2.4,18.75-45.12,5.58-26.37-6.71,1.58,3.21,2.43-2.55,5.19-.42,5.67,3.1,13.49-2,16.09,3.93,2.64-.71,1.71-6.1,5.05-2C893.4,1415.53,894.67,1418.81,887.71,1408.26Zm-3.45-5c-1.35,3-2.83-2-5.33.08-1.89,0-2.64-3.38-5.2-2.83-1.75,0-.2,1.29-.62,1.88-.33,2.44-3.06,1.34-1.77-.73-1.16-.31-3.69,3.88-2.74.56C867,1398.74,882.31,1396.79,884.26,1403.29Zm78.17-15.68c-5.34.18,2.09-8.78,2.68-10.79-2.3-3.6-7.65,1.87-8.56,3.92,3.57-.8,4.35-.63,1.06,2.31-7.13,7.44-13.59,18.24-21.66,10.64a23,23,0,0,1,2.53,11.59c-1.4,14.49-12-9.48-14.48-14.62-.09,4.28,2.69,8.35-.35,12.15,8-7,6,9.71,13.09,10.4-6.62-5,23.67-1.79,3.78,9.76-4.77-.12-22,8.06-39.26-4.29-3.14-13.56-32.84-21.67-11.19-30.58,1.52-.28,2.08-4.28,1.71-5.71-6.57-12.41-40.67-2.67-20.92,8.85,9.66,7.22-4,6.22-9.9,8.46-7.75,6.57-14.3,12.34-24.85,14.92-4.37,4.05-23.88,4.7-12.05,2.77,9.87-3.75,24.15-12.8,5-4.78-8.05,3.53-28.63,6.85-24.22-8.57,7.91-7.33,18.63-11.36,13.39-25.41.15-4.25.92-4.63,4.81-6.85,1.47-.85,1.27,4,3.58,3.46,1-2.45.87-6.17,3-2.07,5-8.9-13.68,2.33,6.1-16.4,2-11.14-15.78-4.6-16.54,3.21-6.76,10.45,3.34,27.44-6.59,34.93-9.39,3.43,2.13-10.44-.65-17.91-4-2.79-6.2-15.18-5-23.84,1.61-4.39,7.67-.6,9.67-3.54,6.31-6.53,15.46-9.42,23.63-4.77,5.29,3.49,5.19,1.22,4.07,7.06-1.75,1.22-12.45,10.73-6.92,8.67,3.26-9.88,30.71-8.62,10.32-9.66,0-4.16,6.79-5.24,9.86-7.14a1.68,1.68,0,0,0,1.29-1c-5.26.52,3-5.13,6-4,8.6-6.92,16.09,3.17,24.85,3.94,3.14-2.43-5.65-1.83-7-2.56,8.07-1.79,15.51-4.58,24-2.6,3,2.75,7.13,4.31,6.81,8.69,5.21-2.76,9,5.47,10.54,10.22.4-5.9,1.41-3.78,6-2.56-2.41-5.64,8.77.17,10.23,1,7,4.9-.14,17.43,3,25,.21,2.07-5.44.08-.65,2.34C955.1,1385.19,977.48,1353.51,962.43,1387.61Z" transform="translate(-624.17 -975.31)"/>
      <path d="M874,1156.64v0C874.06,1156.61,874.05,1156.61,874,1156.64Z" transform="translate(-624.17 -975.31)"/>
      <path d="M648.84,1369.68a15.67,15.67,0,0,1,1.51,1C651.76,1370.1,650.58,1369.92,648.84,1369.68Z" transform="translate(-624.17 -975.31)"/>
      <path d="M825.72,1064.57c3.64,11.23,13.93-18.14,18.14,6.42-8.24-8.21-8.37-3.07-16,.46,6.39.12,9.49-6.31,13.36,3.21,1.53,1.55-.43-3.1,4.09-.47,4.31,4.14-4.91,0,.09,9.41-6.2-11.67-2.65,7.18-.09,10.61,3.72,2.26,2.23-2.92,2-4.17,2.31,3.42,6,5.63,9.79,7.93,1.89,2.46-9.65-5-3.49,0-3.86.35,1.23,5.39,5.79,3.95,5.46,3.42,6.87-3.82,10.17-5.08.09-4,6.33-2,7.42-5.12,2.65-4.26,3.92-4.93,1.94.22,1.1,2.91-3.65,2.8-2.58,4.45,2.13,1.85,2.17-2.31,4.24-2.13.71-.38,4.62-20,2.23-10.91-5.36,6,4-13.56-3.19-2.29-2.19-5.45,7.39-9.7-4.1-12.72,8.49,4.13-1.37,8.93,2.21,14.74,1,4.21-11.06,8.41-15.09,10.12,12.13-10.26,18.9-10.73.8-4.07,2.5-1.76,7.61-7.17,8.07-6.84,1.34.64-.77,1.54-.15,2.28,3,.76,2.23-3.25,2.7-4.62,4.86-4.88.14-1.78-2.91-2.82-6.1-6.51-13.45-7.06-22-6.46-1.75.36-4.59-8.89-3.88-10.88.66-1.38-.88-.18-1.37-.72,1.27-2.41,10.74-11.53,7.22-10.54-2,2.47-4.32,5.65-6.89,7.15.89-1.59,0-9.51-1.56-5.52-.22,5.1-1.71,15-3.41,4.84,0-4.15,4.45-17.31,0-6.38.49-12.43-2.66,6.85-1.76,10.18-11.35,8.54.09-7-2.34-11.62-3.13,9.54-.31-.09-2.32-4a120.09,120.09,0,0,0-1.1,16.74c-1.67-5.16-.84,3.8-2.51-3.23C829.2,1063.6,819.37,1060.18,825.72,1064.57Zm52.5,22.41c-4.81,2.85-9,6.73-14.45,8.39C869.06,1093.47,872.41,1087.23,878.22,1087Zm-15.54-2.35c-4.56-5.82.42-1.89-5.95-1.55-1.2-5.71-2-7.61-7.33-1.83C845.32,1066.32,873.89,1072.59,862.68,1084.63Zm-12.36.9c6.11,8.51,28.39-11.8,12.14,2.58-.45,1.05-.44,1.49-.13,1.52C856.91,1096.67,842.63,1078.09,850.32,1085.53Z" transform="translate(-624.17 -975.31)"/>
      <path d="M820.81,1063.54c-5.34-1.35,2.05-2.13-2.48-2.71-6.25.52-10.55-5.1-15.26-7.29,3.64,9-6.15,18.61,2.48,26.3,1,5.3,13.46,1.83,3.24,4C817.07,1087.45,832.39,1068.29,820.81,1063.54Zm-11.17,10.65c-5.33-6.76,2.26.15,2.26,4.23C806,1077.66,806.22,1071.65,809.64,1074.19Z" transform="translate(-624.17 -975.31)"/>
      <path d="M885.5,1070.23c1.22,2.8,4.18-1.59,4.91.53-.29,1.23,2.28,6.84.17,5.38-1.19-2.52-2.47.26-4.15-.41,1.71-.73,3.36-1.4,3.07-3.53-8.61-2.43-2.45,8.6-4.29,13.9-3.7,5.68,10.79,3.82,3.56,7.59.75,2.12,16.86-5.2,18.08-7.76,1.89-3.87-9.68-.2-16,3.46,15.86-9.54,0-2.5,1.5-23.92.15,3.86,6.42,13.77,4.87,6.75-1.23.71-5.92-18.74-6.71-16.13-.9,10.61-2.56,10.49-3.7.74C886.19,1061.66,880.56,1066.38,885.5,1070.23Z" transform="translate(-624.17 -975.31)"/>
      <path d="M830.1,1091.24c0,2.38-.6,6.54,1.69,7.57,12.62,5.71,5.88-15.79,5.14-22.74C832.82,1066.4,812,1109.67,830.1,1091.24Z" transform="translate(-624.17 -975.31)"/>
      <path d="M893.9,1006.54c.92.09,1,.25,1.1,1.26.1.81,2.48.49,1.35,1.64-1.87,1.4,1.91.7,1,1.88-1.09,1-.17,1,.42,1.24,4.45,1.23,1.57,14.72.54,15,2.87,3.94,1.36,12.81,1.73,18.2,4.47-3.38-.72-16.36.66-23,3.25-1.58,4.12,7.93,7.71,9.47-.48,3.16.37,18.15,2.12,10.18,1.41-11.17-8.57-17.58-7.73-23.81-3.61-7.1-5.61-13-11.11-19.57C890.89,1002.51,896.15,1004.23,893.9,1006.54Z" transform="translate(-624.17 -975.31)"/>
      <path d="M883.57,1022.74c-2.24,10-4.42,20.79,0,30.44-2.16-11.79-1.87-24.31,2.89-35.85C890.29,996.21,873.53,1037.29,883.57,1022.74Z" transform="translate(-624.17 -975.31)"/>
      <path d="M918.66,1030.88c3.18,12.67-2.91,23.42-3.65,35.64C918.31,1055.31,923.93,1042.63,918.66,1030.88Z" transform="translate(-624.17 -975.31)"/>
      <path d="M877.07,1042.48c-1.86,5.46.22,11.47-4.44,15.81C880.79,1058.58,879.42,1047.28,877.07,1042.48Z" transform="translate(-624.17 -975.31)"/>
      <path d="M848.49,1065.78c6,5.52,11.47-3.87,18.57-3.28,4.17-1.29-8.95-1-9.93,1.48C855.45,1067.75,850.71,1064.36,848.49,1065.78Z" transform="translate(-624.17 -975.31)"/>
      <path d="M813.19,1093.57c2-2.16,6.4-3.4,7.29-6.6C818.94,1083.15,812.65,1091.31,813.19,1093.57Z" transform="translate(-624.17 -975.31)"/>
      <path d="M848.86,993.43c-6-1.36-14.59,3-13.15,8.88A15.7,15.7,0,0,1,848.86,993.43Z" transform="translate(-624.17 -975.31)"/>
      <path d="M827,1073.5l-9,9.93C820.42,1082.79,828.67,1076,827,1073.5Z" transform="translate(-624.17 -975.31)"/>
      <path d="M878.22,1073.68c-1.27-4-7.21-4-10.53-4.56A103.08,103.08,0,0,0,878.22,1073.68Z" transform="translate(-624.17 -975.31)"/>
      <path d="M909.21,1050.65c.19,1.09-1,8.79.84,5.07C911.36,1051.63,909.65,1041.44,909.21,1050.65Z" transform="translate(-624.17 -975.31)"/>
      <path d="M783.34,1377.63c-8.64.13-29.28,14.17-29.61,11.48,7.69-3.82,13.93-10.74,20.55-15.14C769.25,1381.54,778.39,1378.14,783.34,1377.63Z" transform="translate(-624.17 -975.31)"/>
      <path d="M833.49,1335.85c-3.47,7.23-4.4-4.93,1.91-2,10.51-.9,11.6-16.69,22.3-17.55C842.9,1324.7,855,1330.23,833.49,1335.85Z" transform="translate(-624.17 -975.31)"/>
      <path d="M822,1340.24c-1.64,3.31-13.26,4.38-13.24.39,8.76-1.51,13.4-21.13,25.68-20.84C827.6,1323.47,801,1346.38,822,1340.24Z" transform="translate(-624.17 -975.31)"/>
      <path d="M885.93,1317.61c0-1.08,1.89-4.14,2.23-1.54,1.55,1.92,5.76-.2,4.18,4.78C889.7,1320.07,886.65,1322.28,885.93,1317.61Z" transform="translate(-624.17 -975.31)"/>
      <path d="M788.52,1394.68c5.25-6.34.24,5.76-1.87,1.86-1-2.12,0-1.77-2.67-1.62C787.11,1392.24,791,1387.7,788.52,1394.68Z" transform="translate(-624.17 -975.31)"/>
      <path d="M916.53,1236.43c-4.24,2.42-.63,4.87-1.39,7.77C910.76,1244.08,911.6,1236.34,916.53,1236.43Z" transform="translate(-624.17 -975.31)"/>
      <path d="M738.23,1405.63c-9.18,2.87,2.39-11.75.65-5.43C737,1402.13,734.14,1404.44,738.23,1405.63Z" transform="translate(-624.17 -975.31)"/>
      <path d="M745.55,1392.39c1.58-2,3.62-1.62,3.76.27-2.72-.88-1.72,1.92-3.8,2.36C742.63,1394.63,744,1387.69,745.55,1392.39Z" transform="translate(-624.17 -975.31)"/>
      <path d="M906.77,1287c1.8-.47,3.8,2.78,4.31-.5C918.58,1288.21,910.22,1291.9,906.77,1287Z" transform="translate(-624.17 -975.31)"/>
      <path d="M787.76,1263.19c-3.48-3.45.82-1.09,3-.87-4.94-3.29,9,.41,12.49-.35,4.56,0-12.41-2.48-16.16-3.63,9.19-.06,12.05-5.47,17.65-6.09.27-.83.32-.82,1.25-.35.53-.25-.72-2.18,1.18-1.21,1.81-1.49,2.16-4.9,5.7-3.53,3.89-.35,1-10.25.55-13.61.38-6.56,5.18-10.81,3.63-18.32-.64-10.41,2.28,3.55,3.91,7.44-.18,3.84-8.49,5.28-5.2,10.85,5.85,10.22,2.65,29.11-7.72,34.32C802.07,1270.5,776.1,1261.58,787.76,1263.19Z" transform="translate(-624.17 -975.31)"/>
      <path d="M769.23,1258.06c-6.53,7.29,4.71-4.49,7.6,4-10.8,7-26.94-4.75-35.63-8-11.69,2.63-2.23-10.17,3.17,0,6.91,1.32,16.46,12.62,22,4C767.35,1256.48,767.12,1258.61,769.23,1258.06Z" transform="translate(-624.17 -975.31)"/>
      <path d="M774.43,1250c1.72,5,16.46,4.47,22,.58-4.77,5.86-20.4,7.88-26.06,3.74-13.11-11.64,2-16.33-4.28-7.48,5.76-5.73-.81,3.16,2.72-.3,1.88-2.19,1.71,1.71.73,2.86,2.19-1.49,2.51-1.67,1.56,1.05C774.34,1247.25,771.73,1251.45,774.43,1250Z" transform="translate(-624.17 -975.31)"/>
      <path d="M784.82,1241.92c-1.17-3.35.61-6.24-.87-8.86,2.92.16,1.61-3,4.15-3.49,6.06-1.87.7-15.75,5.39-10,2.62,4.42-5.12,10.12-6.47,14.58C783.1,1236.24,791.63,1241.19,784.82,1241.92Z" transform="translate(-624.17 -975.31)"/>
      <path d="M762.39,1240.78c-6.25,4.37-.12-1.67-2-4-.07-.12-1.68-1.45.43-1.16.17-3.4,1.4,1.58,2.67,1,.58-.76-3-5.23-.33-3.29,8.68,7.27-4.37,15.11.65,8.71C760.18,1243.75,759.65,1244.24,762.39,1240.78Z" transform="translate(-624.17 -975.31)"/>
      <path d="M806.29,1213.58c2.32,1.45,3.86,13.42,2.33,16.84C806.21,1224.75,808.67,1219.34,806.29,1213.58Z" transform="translate(-624.17 -975.31)"/>
      <path d="M812.77,1272.73c5.58,3,3.48,1.08,6.31,5.46C813.76,1278.07,811,1274.25,812.77,1272.73Z" transform="translate(-624.17 -975.31)"/>
      <path d="M809.2,1233.11c.67,4,4.45,8.74.84,12.26C810.62,1241.2,807.9,1237.37,809.2,1233.11Z" transform="translate(-624.17 -975.31)"/>
      <path d="M732.63,1226.39c1.41,3.38.92,8.09-.31,10.95A20.18,20.18,0,0,1,732.63,1226.39Z" transform="translate(-624.17 -975.31)"/>
      <path d="M749.5,1217.92a46.05,46.05,0,0,1,1,10.89C748.82,1227.14,748.14,1220.53,749.5,1217.92Z" transform="translate(-624.17 -975.31)"/>
      <path d="M759,1214.93c2.28,2.69,4.23,5.48.4,8C760.24,1220.69,759.5,1218,759,1214.93Z" transform="translate(-624.17 -975.31)"/>
      <path d="M865.88,1354c11.9,3.48-13.06,17.62,3.08,6.93,1-.84,2,1.06.42.73-6,2.47,5.18,3.47,6.7.18,4.08-9.8,5.87-3.2-1.34,2.73,3.26,2.32,2.41-2.79,6-2.93-2.63,9.22-11.07.21-17.91,4.48-5.84,2,2.09,1.18,4.35.1-9.51,6-21.75,11.62-30,19.48-3.65,8.26-.69,3-9.84,13.68-1.38,1.92-7,2.5-7.29-.38,2.51-.31,5.9-.13,7.31-3.36,2.21-2.27-.58-1.3,1.81-2.63-3,.55-3.22-2.27-.23-2-2.37.83-5-2-2.47-3.07,9.9-1.08-5.38,1.11-.46-4-2.3-.32-6.72,7.35-6.15,4,2.3-2.19,12.25-16.86,9-9.23,1.64,3.12,3.82,5.71,5.49,9,.85-1.72.56-4,3.27-4.55-4-1.63-7.49-7-4.62-10.54,1.54,2.69,3.58,8.72,7.89,6.95-8.58-2.57-1.67-4.78-5.94-9.53-.76,11.7-3.09-11.34,2-5.48-1.44,1.52,1.54,1.56,0,2.82-3.72,1.81,1.56,2.6,1.58,4.88,3.75,3.81,1.39-2.39-1-3.57,6-2.38,13.51-6.7,15.85-12.68C851.3,1365.93,875.05,1363.06,865.88,1354Zm-20.23,18.91c3.68.42,15.79-6.35,8.44-8.5-2.49,2.27-4.58,6.59-8.92,3.71C841.45,1366.86,842.73,1373.13,845.65,1372.92Zm-3.6-.28c.4,8.91,12.33-.84,15.84-3.35C853.16,1371.05,846.86,1377,842.05,1372.64Zm5.59-4.45c1.58-.06,4.24-1.31,3.92-3.16C850.09,1363.47,843,1368.22,847.64,1368.19Z" transform="translate(-624.17 -975.31)"/>
      <path d="M924.05,1361.44c4.85,2-1-2.22,1.41-3.84,3.2,3.57,5.3-5,10.84-2,7.37,4.11-13,39.43,17.7,26.33,3.37-.48-10.21,12.86-13,10.65.76-.93,4.54-4.51.54-3.18-8.21,3.91-8.32-5.48-7.7-11C928.91,1374.15,926,1368,924.05,1361.44Z" transform="translate(-624.17 -975.31)"/>
      <path d="M883.7,1364.24c4-12,16.51-10.83,9.93-9.09-13.82,1.2,0,16.83-3.46,11.36,6.59-11,9-1.87,15.28,3.84,1,1.06,2.79-1.95,4,1.3-4.23,2,5.92,4.85.87,6.52-2.8,1.8-7.68,6-.86,4.54,3.38-4.82,5.29-9.63,3.21-.21-.47,2.09-4.65,1.64-5.11,3.91,3.32,2.27,10.53-4.57,4.73,2.24,1.51,1.06,4-2.87,5.51-1.07-1,2.28-5.56,3.17-5.16,6.61-2.17,3.67-1.94-7.43-6.5-7-1-9.71-10.68-11.7-16.17-18.06.74,5-5.66-4.86-9.9-2.55C877.45,1365,885.42,1366.62,883.7,1364.24Zm13.26.56c-11.71,4.94,8.26,15.76,8.29,7C901.06,1370.74,892,1373.05,897,1364.8Zm12.83,11.5c-1.43-3.93-4.54,1.66-6.47,2.09C904.47,1380.18,909,1378,909.79,1376.3Z" transform="translate(-624.17 -975.31)"/>
      <path d="M873,1366.7c-6.76,3.42-13.45,5.75-18.44,11.78,7.27-2.13,28.68-16,13.34-4.94,3.23-.92,7-3.39,9.88-2.36C856.55,1378,846.24,1383,842.2,1400,841.64,1385.25,858.38,1368.9,873,1366.7Z" transform="translate(-624.17 -975.31)"/>
      <path d="M838.08,1394.77c4.13,20.26-41.5,11.92-21.56,7C813.48,1408.88,832.37,1408.29,838.08,1394.77Z" transform="translate(-624.17 -975.31)"/>
      <path d="M905.17,1395.41c2.54,2.53,2.31,6.59,3.65,9.35,1.09,1.61,8,1.87,5.18,2.94C926.59,1412.94,905.68,1419.32,905.17,1395.41Z" transform="translate(-624.17 -975.31)"/>
      <path d="M921.16,1388.47c2-4.89-1.13-10.16.65-14,2.52,1,1.89,6.62,3.66,9.18.24,3.59-1.74,1.14-1.73-1.07C923.37,1384.7,924.14,1387.17,921.16,1388.47Z" transform="translate(-624.17 -975.31)"/>
      <path d="M844.59,1406.69c2.26-3.48,17.2-12.88,14.13-8.72C852.81,1398.86,850.5,1406.84,844.59,1406.69Z" transform="translate(-624.17 -975.31)"/>
      <path d="M915.55,1378.72c2.2-5.91-8-15.12-4.25-13.66.73,3.84,7.86,4.73,5.28,9C916.3,1376.34,917.14,1385.08,915.55,1378.72Z" transform="translate(-624.17 -975.31)"/>
      <path d="M893.16,1378.87c4,3.39,12.12,8.66,10.45,14.43C902.48,1387.14,896,1384.37,893.16,1378.87Z" transform="translate(-624.17 -975.31)"/>
      <path d="M883.72,1364.22c-4,3-1.23-8.56,1.06-12.08C884,1356.46,884.33,1360,883.72,1364.22Z" transform="translate(-624.17 -975.31)"/>
      <path d="M829.6,1347.63c2.67-1,8-1.37,9.69.79C837.16,1349.16,832,1348.57,829.6,1347.63Z" transform="translate(-624.17 -975.31)"/>
      <path d="M720.13,1352.57c11,10,21,19.44,36.44,17.25,8.69,3.24-13.51,7.21-17.76,2.12-6.66-.87-9.52-9.74-11.88-11.52C724.71,1360.59,719.92,1355.27,720.13,1352.57Z" transform="translate(-624.17 -975.31)"/>
      <path d="M710.25,1342.7c-3.71-2.53,7.09-36.19,5.65-20.43-1.54,6.82-2.61,17.22-1.59,21.64-3,.33,1,1.76-1.66,3.38-3.6,1.35,2.45,1.71,1.75,3.42C709.79,1353.94,702.38,1342.27,710.25,1342.7Z" transform="translate(-624.17 -975.31)"/>
      <path d="M766.59,1364.52c-8.62,2.48-20.9,5.79-27.42-2A123.56,123.56,0,0,0,766.59,1364.52Z" transform="translate(-624.17 -975.31)"/>
      <path d="M727.62,1334.21c1.11-6.81,4.06-4.77,1.72.44-4.51,4.53,1.47,11-2.24,15.44C723.66,1351.93,726.18,1318.84,727.62,1334.21Z" transform="translate(-624.17 -975.31)"/>
      <path d="M730.74,1315.26c-4.57,2.87-16.64,1.28-10.63-5.36.71,6,5.44,3.86,10.19,4.21,3.46,1.2-2.33,7.53-2.21,11.07C726.78,1321.7,726.9,1317,730.74,1315.26Z" transform="translate(-624.17 -975.31)"/>
      <path d="M762.45,1155.33c-7.6-8,14.17-3.87,12.21-12.66-.7-8.67-11.07-1.35-14.41-5.76-1.33-8.58,20.31-9.14,2.4-1.84-3,5.28,22.47-2.5,11.63,13.84,5.75-3.24,40.22,6.13,34.53,13-1.21,3.62,10.38-.72,7.22,10.69-3.4,8.5-10.95-1.22-1.94-4.25,1.48-6.8-10.48-1.77-12.88.41-1.57-2.78,6.25-7.75,7-9.53-3.52-6.12-19.76-4.92-17.4,3.23-2.39.58-7.35,2.63-9.48.54-3.46-7.54,18.81-5.85,10.27-13C783.92,1150,763.22,1146.47,762.45,1155.33Z" transform="translate(-624.17 -975.31)"/>
      <path d="M758.87,1160.19c-12,5.08-7.19-7.52-14.64-3.65-2.21-.36,6.69-6.43,8.74-6.5,2,.44,3.82.62,5.51-1.44-.45,4-12.16,3.1-5.15,8.83,4.74.88,10.58-.17,15.08.74,2.64-1.28,8.52-5.11,10.38-1.58-3.18,5.47-2.53-.44-3.83.63C769.75,1158.45,761.42,1166.16,758.87,1160.19Z" transform="translate(-624.17 -975.31)"/>
      <path d="M750.35,1166.88c6.72-1.56,25.44-3.85,18.55,9.35-2.3,2.4,2.47,2.82,1.35,5.31-.64,2.41-4.8,2.86-5.26.13,1.44.28,4.65-.25,2.55-2.2-1.21-5.15,3.79-15.75-7.42-11.24-4,2.71-3.88,1.43-1.31-1.53C755.71,1165.07,753.52,1171.1,750.35,1166.88Z" transform="translate(-624.17 -975.31)"/>
      <path d="M785,1171.39c7.38-9.36-12.76,7.47-12.53-2.78-.3-3.58,1.8-6.88,2.56-2.11,3.54,4.22,8-.31,12,1.31C790.32,1169.64,788.11,1173.28,785,1171.39Z" transform="translate(-624.17 -975.31)"/>
      <path d="M822.61,1164.46c1.09-6,4.61-4.33,2.41.87,3.71,3,10.47-.54,13.07,4.63.78.87-.48,1.93-1,.75C833.67,1164.76,823.29,1173.81,822.61,1164.46Z" transform="translate(-624.17 -975.31)"/>
      <path d="M843.12,1170.78c-3.94,3.18.07,4.94-.68,8-1.54,2.46-5.12.67-5.4-1.94C844.06,1181.92,835.45,1171.67,843.12,1170.78Z" transform="translate(-624.17 -975.31)"/>
      <path d="M829.24,1172.37c1.14,4,5,4.87,6.64,7.46C832.89,1180,827.16,1176.24,829.24,1172.37Z" transform="translate(-624.17 -975.31)"/>
      <path d="M889.49,1261.19c-4.29,20.34-1.57-8.46-4.43-17.11-5.37,1.67,1.54-13.92-1-18.45-3.26,12.81-1.29-10.82,4.15-13,6,16.4,10.63,40.09,6.43,53.65C889.05,1276.69,893.4,1265,889.49,1261.19Zm2-19.67c-.58-8.17-4.74-35-4.41-11.51C884.51,1235.87,887.65,1238.51,891.46,1241.52Zm-.18,18.41c2-5.45,5.45-14.13,2.82-20C893.72,1247.08,887.85,1252.85,891.28,1259.93Zm-3.11-9.52c.69-1.7,4.73-6.25,1.57-6.65C885.8,1242.49,886.51,1248,888.17,1250.41Z" transform="translate(-624.17 -975.31)"/>
      <path d="M863.3,1293.44c6.83-11.44,4.64-11.81-3.72-1.54-11.49,8.93,20.15-26.66,31.85-8.9C881.22,1283.56,872.41,1289.67,863.3,1293.44Z" transform="translate(-624.17 -975.31)"/>
      <path d="M879.51,1274.07c1.85,5.21-1.37,1.7-2.78-1.25-3.56,9.8,1.33-23.22-.27-29.92C881.17,1225.1,883.08,1277.72,879.51,1274.07Zm-1.46-23.65c-.18,6.67-2.28,13.62,1.19,19.65C878,1263.91,884.13,1254.77,878.05,1250.42Z" transform="translate(-624.17 -975.31)"/>
      <path d="M867.73,1220.88c.36,21.22-.14,6.34-6.43-1.5-.8-17.11,17.63,13.37,10.31,19.34C868.61,1233.74,872,1226,867.73,1220.88Z" transform="translate(-624.17 -975.31)"/>
      <path d="M860.36,1248.38c3.85,10.27-.86,44.87-.47,19.81-1-2.11.12-4.31-.13-7C854.84,1282.73,855,1241.8,860.36,1248.38Z" transform="translate(-624.17 -975.31)"/>
      <path d="M860.2,1248.17c-1.7-9.38,4.29,8.44,3.81-11.71-5.34,10-6.68-10.86-6.25-15.27C859.16,1212.61,872.68,1256.89,860.2,1248.17Zm-1-20.53c-1,3.9,1.07,6.8,2.79,9.87C864.32,1233.62,861.41,1230.76,859.16,1227.64Z" transform="translate(-624.17 -975.31)"/>
      <path d="M877.71,1221c3.61-5.25-1.27-11.86,2.7-16.39,1.66,9.8-.11-4.72,4.52,5.78.75-6.79,2.83-1.4.79,1.46-6.67-3.22-5.64,21.1-9,10.11-.84-1.83-4.58-3.47-3-6.45.38-.49.13-7,1.54-3.51C877.81,1215.63,872.94,1217.28,877.71,1221Z" transform="translate(-624.17 -975.31)"/>
      <path d="M866.12,1275.74c.26,4.79-3,5.53-6.45,6,.74,1.27,2.49,3-.23,2.54.51,2.18.51,2.17-1.62,2.56-3-.06-1.5,5.95-4.47,5.34,8-20.28,14.78-5.77,10.22-34.07-.16-.3-.92-.57-.21-1,3.27-.7.69,4.87,2.19,6.81C863.66,1268,873.81,1284.24,866.12,1275.74Z" transform="translate(-624.17 -975.31)"/>
      <path d="M868.08,1246.35c4.26,5.94,3.74,12.38,2.53,19.14-.86-6.68-3.33-15.7-2-21.81,3.6,1.7.27-.29,2.33-3.24C872.13,1238.57,872.82,1248.84,868.08,1246.35Z" transform="translate(-624.17 -975.31)"/>
      <path d="M883.27,1138.72c1.19,5.53-4.44,17.44-4.7,6.49.12-1.46,1.59-3.34,2.3-4.5C880,1139.47,882.93,1135.68,883.27,1138.72Z" transform="translate(-624.17 -975.31)"/>
      <path d="M878.57,1173.6c3.87-2.81,8.78,8.47,7.58,12.15-2.5-.38-.67-6.09-3.37-4.13C881.7,1179,882.46,1174.39,878.57,1173.6Z" transform="translate(-624.17 -975.31)"/>
      <path d="M871.27,1201.77c2.37.38,2.08-2.65,3.56-3.15,1.67.61.47,3.11-.67,3.69-.86.62-.82,1,0,1.64,2.27,1.12-2.42,4.57-3.67,4.52C866.27,1203.32,876.77,1207.94,871.27,1201.77Z" transform="translate(-624.17 -975.31)"/>
      <path d="M874.77,1253.56c-1,4.23-.63,9.75-2.64,13.29C870.38,1262.94,872.49,1257.29,874.77,1253.56Z" transform="translate(-624.17 -975.31)"/>
      <path d="M850.34,1268.05c2.26,5.53-4.88,9.13-3.16,2.19C848.72,1272.43,848.53,1268.86,850.34,1268.05Z" transform="translate(-624.17 -975.31)"/>
      <path d="M883.75,1270.28c.77-3-1-6.16,1.32-8.76-1.71,2.89,3.43,14.08-3.26,9.42C881,1269.33,882.91,1269.46,883.75,1270.28Z" transform="translate(-624.17 -975.31)"/>
      <path d="M881.74,1196c-2.72-14,5.9,2.28-.78,1.49C879,1196.35,879.88,1195.09,881.74,1196Z" transform="translate(-624.17 -975.31)"/>
      <path d="M890.54,1125.5c-.11,2-2.56-.2-3,1.83-1.45,1.36-2.09,5.12-4.06,5.11C882.69,1130.34,888.4,1123,890.54,1125.5Z" transform="translate(-624.17 -975.31)"/>
      <path d="M882.9,1204.57a8.61,8.61,0,0,1,1.62-6.93C887,1198.75,884.91,1203.56,882.9,1204.57Z" transform="translate(-624.17 -975.31)"/>
      <path d="M778,1428.26c2.8.24,6.44,8.59,3.37,4.91a6.07,6.07,0,0,0-8.82-2.57c-23.17,10.25,11.91-13.25-20.15-8.11-12.94-.89,31-5.66,13.08,8.75C769.14,1432.88,773.55,1426.72,778,1428.26Z" transform="translate(-624.17 -975.31)"/>
      <path d="M734.7,1422.21c-11-7.31-31.52,17.66-32.91-1C707.36,1433.45,724.11,1413.2,734.7,1422.21Z" transform="translate(-624.17 -975.31)"/>
      <path d="M786.66,1438.71c2.59-.74,3.51-4,6.7-4-2.58-3.92-9.77,4.5-7.73-.13,2.86-4.19,9.1-.78,12.78-.61-2,2.48-.88,1.57.76,4.57C794.13,1434.61,791.3,1439,786.66,1438.71Z" transform="translate(-624.17 -975.31)"/>
      <path d="M759.1,1428.94c8.09-3.35-10.29,14.63-9.37.49C751.71,1431,758.44,1433.4,759.1,1428.94Z" transform="translate(-624.17 -975.31)"/>
      <path d="M733.47,1432.3c9.17-2.55,23.63-4.93,5.24-10.63C757.62,1424.17,747.15,1433.39,733.47,1432.3Z" transform="translate(-624.17 -975.31)"/>
      <path d="M701.74,1418.66c1.59-5.4,13.23-3.68,15-3C712.39,1419.59,706.38,1413.34,701.74,1418.66Z" transform="translate(-624.17 -975.31)"/>
      <path d="M660.19,1383.2c-2.46,4.58-5.84-2.15-8.17,1.34-1.88,2.48-5.22,2.09-6.94-.86-1-1.78-1.46-2.73-3.89-1.33-6.69,4.29-9.93-11.11-2.41-9.9-4.91,0-3.74,9.67.77,9.23,3.05-.44,3-6.84,7.05-3.5-4-.52.25,6.5,1.92,4.09C652.79,1381,656.16,1384,660.19,1383.2Z" transform="translate(-624.17 -975.31)"/>
      <path d="M720.47,1378.94c-1.32,1.75-3.41,2.27-.17,4,1.67,8.09-16.95,6.61-4.48,2.48C721.91,1386.59,712.44,1379.26,720.47,1378.94Z" transform="translate(-624.17 -975.31)"/>
      <path d="M670.94,1385.59c5.18-6.09,20.08-3,23.93,1.85C687.37,1385.19,678.54,1381.05,670.94,1385.59Z" transform="translate(-624.17 -975.31)"/>
      <path d="M666.44,1383.07c-5.35-1.34-17.65-4.87-12-11.7C653.13,1380.79,662.42,1377.9,666.44,1383.07Z" transform="translate(-624.17 -975.31)"/>
      <path d="M772.37,1291.17c-3,3.41-1-6.69-1.67-9.39,2.26,2.64,1.58,2.66,1.73-.79,2.18,1.59,1.45,6.24,2.46,1.35C780.18,1284.59,765.75,1304.85,772.37,1291.17Z" transform="translate(-624.17 -975.31)"/>
      <path d="M765.11,1304c.52,3.12-4.27,6.65-4.11,2C761.26,1303.92,764.91,1300.26,765.11,1304Z" transform="translate(-624.17 -975.31)"/>
    </g>
  </g>
</svg>
